<?xml version="1.0" encoding="UTF-8" standalone="no"?>
<svg xmlns:rdf="http://www.w3.org/1999/02/22-rdf-syntax-ns#" xmlns="http://www.w3.org/2000/svg" height="132" width="320" version="1.1" xmlns:cc="http://creativecommons.org/ns#" xmlns:dc="http://purl.org/dc/elements/1.1/" viewBox="0 0 320 132">
 <g transform="translate(0 -920.36)">
  <path stroke-linejoin="round" d="m5 935.86h310v86h-310z" stroke="#800000" stroke-width="2" fill="#800000"/>
  <g>
   <path style="" d="m14.921 1036.2c0.04125 0 0.04125 0.014 0.055 0.041 0.4675 1.1137 1.2238 2.9837 1.4438 3.6162 0.165-0.027 0.55-0.041 0.89375-0.041 0.15125 0 0.385 0.014 0.6325 0.027-0.3575-0.5363-1.1275-2.3238-1.7462-3.795-1.1825-2.7913-2.53-5.8713-2.6812-6.215-0.1925-0.4538-0.26125-0.5638-0.33-0.5638-0.0825 0-0.15125 0.165-0.31625 0.5638l-2.7225 6.7512c-0.55 1.3338-1.0725 2.5438-1.4162 3.2725 0.11-0.014 0.45375-0.041 0.72875-0.041 0.28875 0 0.4125 0 0.55 0.027 0.165-0.6463 0.7975-2.4063 1.2238-3.6025 0.01375-0.027 0.0275-0.041 0.06875-0.041h3.6162zm-3.355-0.7975c-0.0275 0-0.04125-0.014-0.0275-0.055l1.4988-4.0012 1.6225 4.0012c0.01375 0.041 0 0.055-0.0275 0.055h-3.0662z"/>
   <path style="" d="m23.841 1035.9c0 1.7875-0.055 3.4513-0.11 3.9875 0.12375-0.027 0.50875-0.041 0.7425-0.041 0.20625 0 0.48125 0 0.64625 0.027-0.055-0.5913-0.11-2.2413-0.11-3.9325v-5.4313c0-0.2337 0-0.2612 0.06875-0.275 0.09625-0.041 0.53625-0.069 0.83875-0.069 0.64625 0 1.2512 0.1375 1.6362 0.4125 0.64625 0.3712 1.0175 1.045 1.0175 1.9525 0 1.5812-1.1825 2.2-2.4888 2.255 0.055 0.1375 0.15125 0.5087 0.1925 0.66 1.9662 0.014 3.4925-1.1825 3.4925-3.1213 0-0.9075-0.42625-1.6087-0.77-1.9387-0.5775-0.5225-1.2788-0.8938-2.915-0.8938-0.77 0-1.4988 0.041-1.8425 0.041-0.1925 0-0.385 0-0.53625-0.014 0.0825 0.4813 0.1375 1.9938 0.1375 3.96v2.42z"/>
   <path style="" d="m31.973 1036.5c0 1.5125-0.055 2.97-0.11 3.3962 0.1375-0.027 0.53625-0.041 0.77-0.041 0.22 0 0.45375 0 0.56375 0.027-0.055-0.5225-0.11-1.7738-0.11-3.2313v-0.3712c0-0.041 0.01375-0.041 0.055-0.041h1.5812c0.0825 0 0.11 0.028 0.165 0.083 0.53625 0.7013 1.65 2.3375 2.3238 2.9838 0.48125 0.495 0.77 0.6325 1.375 0.6325 0.28875 0 0.67375-0.027 0.825-0.096-0.20625-0.096-0.605-0.3987-1.1138-0.9487-0.825-0.88-1.6912-2.035-2.4612-3.025 0.9625-0.6463 1.4712-1.4713 1.4712-2.475 0-0.8663-0.45375-1.5538-1.0725-1.925-0.5225-0.3163-1.3062-0.4263-2.1725-0.4263-0.44 0-1.4025 0.055-1.6362 0.055-0.20625 0-0.37125 0-0.605-0.027 0.12375 0.3988 0.15125 1.705 0.15125 3.3688v2.0625zm1.1138-4.6475c0-0.055 0-0.069 0.04125-0.082 0.165-0.041 0.50875-0.055 0.88-0.055 1.3338 0 2.1588 0.7425 2.1588 1.98 0 0.8112-0.4125 1.4025-0.89375 1.7325-0.1375 0.096-0.33 0.1375-0.6875 0.1375-0.6325 0-1.2238-0.041-1.4575-0.096-0.0275 0-0.04125-0.014-0.04125-0.082v-3.5337z"/>
   <path style="" d="m44.412 1040.1c2.9562 0 4.7437-2.0763 4.7437-4.7988 0-2.4337-1.8012-4.3587-4.6062-4.3587-3.1075 0-4.7712 2.2275-4.7712 4.6612 0 2.1038 1.4437 4.51 4.6338 4.4963zm0.20625-0.715c-2.1175 0-3.5475-1.6775-3.5612-4.0563-0.01375-2.1725 1.265-3.6712 3.2862-3.6712 2.0075 0 3.5338 1.5812 3.5338 3.9462 0 2.8325-1.8288 3.7813-3.2588 3.7813z"/>
   <path style="" d="m51.604 1036.5c0 1.65-0.055 3.025-0.09625 3.3962 0.12375-0.014 0.5225-0.041 0.75625-0.041 0.33 0 0.48125 0.014 0.59125 0.027-0.055-0.385-0.11-2.5163-0.11-3.3963v-0.7287c0-0.041 0.01375-0.055 0.0275-0.055 1.1275 0 1.7325 0.014 2.1038 0.041 0.45375 0.027 0.6875 0.082 0.83875 0.165 0.01375-0.3025 0.055-0.88 0.09625-1.0312-0.12375 0.027-0.3575 0.096-1.0312 0.096h-1.9938c-0.0275 0-0.04125 0-0.04125-0.055 0-0.9762 0.01375-2.0212 0.0275-2.9975 0-0.041 0-0.096 0.04125-0.096 0.97625 0 1.8562 0.014 2.2412 0.041 0.6325 0.041 0.7975 0.096 0.9625 0.165 0.01375-0.22 0.04125-0.6737 0.09625-1.0037-0.20625 0.041-0.66 0.069-0.97625 0.069h-2.86c-0.275 0-0.5775-0.014-0.7975-0.027 0.06875 0.3438 0.12375 1.4713 0.12375 3.3688v2.0625z"/>
   <path style="" d="m58.224 1036.5c0 1.65-0.06875 2.97-0.11 3.3825 0.15125-0.014 0.45375-0.027 0.825-0.027 0.50875 0 1.43 0.069 3.0938 0.069 0.45375 0 0.59125-0.014 0.6325-0.028 0.04125-0.2475 0.15125-0.7012 0.2475-0.9625-0.3575 0.1513-0.9075 0.2338-2.0212 0.2338-0.5225 0-0.9075-0.027-1.1962-0.055-0.11-0.014-0.22-0.041-0.26125-0.069-0.055-0.055-0.0825-0.3712-0.0825-2.64v-0.7837c0-0.027 0.01375-0.055 0.04125-0.055 0.23375 0 1.6225 0.014 2.035 0.041 0.4675 0.041 0.67375 0.096 0.83875 0.1788 0-0.2475 0.04125-0.77 0.11-1.045-0.1375 0.041-0.4125 0.069-1.0588 0.096-0.3575 0.014-1.7462 0.014-1.925 0.014-0.0275 0-0.04125-0.027-0.04125-0.069v-2.915c0-0.041 0.0275-0.041 0.04125-0.041 0.99 0 1.705 0.027 2.09 0.041 0.59125 0.055 0.83875 0.11 1.0038 0.2063 0-0.4125 0.055-0.8388 0.0825-1.045-0.22 0.055-0.715 0.069-0.97625 0.069h-2.7225c-0.275 0-0.61875 0-0.78375-0.027 0.0825 0.33 0.1375 1.4713 0.1375 3.3688v2.0625z"/>
   <path style="" d="m64.455 1039.6c0.4125 0.275 1.2238 0.4813 2.0075 0.4813 0.605 0 1.3338-0.1238 1.8838-0.4813 0.83875-0.5775 1.1-1.4987 1.1-2.0212 0-0.9075-0.28875-1.6088-1.7462-2.53l-0.59125-0.3713c-1.0725-0.7012-1.2238-1.1275-1.2238-1.7325 0-0.77 0.605-1.2787 1.4988-1.2787 0.9625 0 1.5538 0.3987 1.7738 0.6737 0-0.44 0.06875-1.0862 0.11-1.21-0.09625-0.014-0.3025-0.041-0.6325-0.096-0.275-0.055-0.715-0.11-1.1825-0.11-1.6912 0-2.6675 1.0312-2.6675 2.2687 0 0.825 0.33 1.595 1.6088 2.42l0.605 0.385c1.0312 0.66 1.2788 1.1138 1.2788 1.815 0 0.825-0.56375 1.4988-1.6775 1.4988-0.935 0-1.6912-0.495-2.0488-0.9488 0.01375 0.3575-0.055 1.0588-0.09625 1.2375z"/>
   <path style="" d="m71.008 1039.6c0.4125 0.275 1.2238 0.4813 2.0075 0.4813 0.605 0 1.3338-0.1238 1.8838-0.4813 0.83875-0.5775 1.1-1.4987 1.1-2.0212 0-0.9075-0.28875-1.6088-1.7462-2.53l-0.59125-0.3713c-1.0725-0.7012-1.2238-1.1275-1.2238-1.7325 0-0.77 0.605-1.2787 1.4988-1.2787 0.9625 0 1.5538 0.3987 1.7738 0.6737 0-0.44 0.06875-1.0862 0.11-1.21-0.09625-0.014-0.3025-0.041-0.6325-0.096-0.275-0.055-0.715-0.11-1.1825-0.11-1.6912 0-2.6675 1.0312-2.6675 2.2687 0 0.825 0.33 1.595 1.6088 2.42l0.605 0.385c1.0312 0.66 1.2788 1.1138 1.2788 1.815 0 0.825-0.56375 1.4988-1.6775 1.4988-0.935 0-1.6912-0.495-2.0488-0.9488 0.01375 0.3575-0.055 1.0588-0.09625 1.2375z"/>
   <path style="" d="m78.325 1036.5c0 1.5125-0.04125 2.9837-0.09625 3.3962 0.12375-0.014 0.495-0.041 0.77-0.041 0.20625 0 0.4675 0.014 0.5775 0.027-0.0825-0.3438-0.11-1.9113-0.11-3.3825v-2.0625c0-1.65 0.055-2.9563 0.0825-3.3825-0.09625 0.014-0.39875 0.041-0.78375 0.041-0.17875 0-0.44 0-0.56375-0.014 0.0825 0.3025 0.12375 1.6912 0.12375 3.355v2.0625z"/>
   <path style="" d="m86.521 1040.1c2.9562 0 4.7437-2.0763 4.7437-4.7988 0-2.4337-1.8012-4.3587-4.6062-4.3587-3.1075 0-4.7713 2.2275-4.7713 4.6612 0 2.1038 1.4438 4.51 4.6338 4.4963zm0.20625-0.715c-2.1175 0-3.5475-1.6775-3.5612-4.0563-0.01375-2.1725 1.265-3.6712 3.2862-3.6712 2.0075 0 3.5338 1.5812 3.5338 3.9462 0 2.8325-1.8288 3.7813-3.2588 3.7813z"/>
   <path style="" d="m94.839 1039.9c-0.11-0.9213-0.1375-4.345-0.15125-6.8338 1.155 1.2238 4.62 5.1563 5.665 6.1325 0.77 0.7425 0.935 0.88 1.0175 0.88 0.0687 0 0.0962-0.069 0.0962-0.6875 0-0.495-0.0138-1.6362-0.0138-2.3925 0.0138-2.2275 0.0825-5.225 0.15125-5.9262-0.0825 0.014-0.4125 0.041-0.67375 0.041-0.165 0-0.39875-0.014-0.495-0.027 0.0962 1.2788 0.1375 4.9775 0.15125 6.7375-1.1-0.8937-5.115-5.4175-6.2975-6.5862-0.2475-0.2338-0.34375-0.33-0.39875-0.33-0.0825 0-0.11 0.055-0.11 0.6875 0 2.0762-0.04125 7.3287-0.12375 8.3187 0.06875-0.014 0.50875-0.041 0.6325-0.041 0.17875 0 0.37125 0 0.55 0.027z"/>
   <path style="" d="m108.79 1036.9c0.0412 0 0.0412 0 0.055 0.027 0.385 0.9213 1.0175 2.4338 1.21 2.97 0.165-0.027 0.55-0.041 0.86625-0.041 0.1375 0 0.37125 0.014 0.605 0.027-0.31625-0.4675-0.99-1.9663-1.5538-3.2175-1.0862-2.365-2.2825-4.9913-2.42-5.28-0.17875-0.3988-0.2475-0.495-0.3025-0.495-0.0687 0-0.1375 0.1375-0.3025 0.495l-2.365 5.6925c-0.50875 1.1687-0.9625 2.2-1.265 2.8187 0.11-0.014 0.4125-0.041 0.70125-0.041 0.275 0 0.385 0 0.5225 0.027 0.1375-0.55 0.67375-1.9525 1.045-2.9563 0-0.027 0.0275-0.027 0.055-0.027h3.1488zm-2.8875-0.7425c-0.0413 0-0.0413-0.014-0.0275-0.041l1.265-3.2863 1.4025 3.2863c0 0.027 0 0.041-0.0413 0.041h-2.5988z"/>
   <path style="" d="m113.32 1036.5c0 1.65-0.055 2.97-0.0825 3.3825 0.1375-0.027 0.3575-0.027 0.67375-0.027 0.61875 0 1.4438 0.069 3.2175 0.069 0.55 0 0.67375-0.014 0.7425-0.028 0.055-0.1925 0.1925-0.7287 0.28875-0.9625-0.28875 0.1375-0.825 0.2338-2.1312 0.2338-0.5225 0-0.94875-0.014-1.1825-0.041-0.15125-0.014-0.2475-0.041-0.28875-0.069-0.0688-0.055-0.0963-0.2475-0.0963-2.6538v-1.9937c0-1.6363 0.0688-2.915 0.11-3.355-0.1375 0.027-0.495 0.041-0.7975 0.041-0.1925 0-0.4675 0-0.5775-0.027 0.0825 0.3438 0.12375 1.705 0.12375 3.3688v2.0625z"/>
   <path style="" d="m124.11 1035.9c0 1.9388-0.055 3.4925-0.0962 3.9738 0.165-0.027 0.37125-0.027 0.6875-0.027 0.66 0 1.6362 0.082 3.6438 0.082 0.61875 0 0.75625-0.014 0.825-0.027 0.055-0.2063 0.1925-0.8113 0.31625-1.0588-0.33 0.1513-0.88 0.275-2.42 0.275-0.59125 0-1.0725-0.014-1.3475-0.041-0.1375-0.014-0.26125-0.041-0.33-0.096-0.0688-0.055-0.0962-0.3987-0.0962-3.1762v-2.365c0-1.925 0.055-3.4375 0.11-3.9463-0.12375 0.028-0.5225 0.041-0.825 0.041-0.165 0-0.495 0-0.605-0.027 0.0825 0.3987 0.1375 2.0075 0.1375 3.9737v2.42z"/>
   <path style="" d="m131.36 1036.5c0 1.5125-0.0412 2.9837-0.0962 3.3962 0.12375-0.014 0.495-0.041 0.77-0.041 0.20625 0 0.4675 0.014 0.5775 0.027-0.0825-0.3438-0.11-1.9113-0.11-3.3825v-2.0625c0-1.65 0.055-2.9563 0.0825-3.3825-0.0962 0.014-0.39875 0.041-0.78375 0.041-0.17875 0-0.44 0-0.56375-0.014 0.0825 0.3025 0.12375 1.6912 0.12375 3.355v2.0625z"/>
   <path style="" d="m135.42 1039.9c0.12375-0.027 0.385-0.041 0.70125-0.041 0.12375 0 0.3575 0 0.495 0.027 0-0.77 0.28875-4.4413 0.42625-6.5038 0.935 1.9663 2.0625 4.0563 3.19 6.435 0.0962 0.165 0.1375 0.1788 0.2475-0.027 0.97625-1.98 2.2-4.4 3.2725-6.435 0.12375 1.98 0.4125 5.8163 0.4125 6.545 0.165-0.027 0.45375-0.041 0.78375-0.041 0.28875 0 0.4675 0 0.5775 0.027-0.17875-0.6875-0.5225-4.0975-0.78375-6.8475-0.0688-0.6188-0.1375-1.2925-0.1925-1.8563-0.0275-0.2475-0.055-0.2887-0.11-0.2887s-0.11 0.069-0.23375 0.2612c-0.385 0.7838-0.715 1.3888-1.3888 2.5025l-2.31 4.3725-2.6675-4.9775c-0.33-0.5775-0.9625-1.7737-1.1-1.98-0.0825-0.1375-0.0963-0.1787-0.165-0.1787-0.0412 0-0.0687 0.041-0.0962 0.1925-0.0687 0.605-0.12375 1.1687-0.1925 1.8425-0.28875 2.7362-0.72875 6.325-0.86625 6.9712z"/>
   <path style="" d="m148.26 1036.5c0 1.5125-0.0412 2.9837-0.0962 3.3962 0.12375-0.014 0.495-0.041 0.77-0.041 0.20625 0 0.4675 0.014 0.5775 0.027-0.0825-0.3438-0.11-1.9113-0.11-3.3825v-2.0625c0-1.65 0.055-2.9563 0.0825-3.3825-0.0963 0.014-0.39875 0.041-0.78375 0.041-0.17875 0-0.44 0-0.56375-0.014 0.0825 0.3025 0.12375 1.6912 0.12375 3.355v2.0625z"/>
   <path style="" d="m151.2 1032.1c0.34375-0.11 0.78375-0.165 1.6362-0.1925 0.7975-0.027 1.1-0.027 1.6638-0.027v4.675c0 1.5125-0.0413 2.9837-0.0962 3.3962 0.15125-0.027 0.48125-0.041 0.7975-0.041 0.1925 0 0.4125 0 0.53625 0.027-0.0412-0.44-0.0962-1.9663-0.0962-3.4375v-4.62c0.88 0 1.4025 0.027 1.9112 0.055 0.78375 0.041 1.1275 0.096 1.32 0.2337 0.0137-0.33 0.0687-0.825 0.1375-1.1137-0.22 0.055-1.1138 0.096-1.8288 0.096h-3.96c-1.045 0-1.5262-0.041-1.815-0.11-0.0275 0.275-0.1375 0.8525-0.20625 1.0588z"/>
   <path style="" d="m160.76 1036.5c0 1.65-0.0687 2.97-0.11 3.3825 0.15125-0.014 0.45375-0.027 0.825-0.027 0.50875 0 1.43 0.069 3.0938 0.069 0.45375 0 0.59125-0.014 0.6325-0.028 0.0413-0.2475 0.15125-0.7012 0.2475-0.9625-0.3575 0.1513-0.9075 0.2338-2.0212 0.2338-0.5225 0-0.9075-0.027-1.1962-0.055-0.11-0.014-0.22-0.041-0.26125-0.069-0.055-0.055-0.0825-0.3712-0.0825-2.64v-0.7837c0-0.027 0.0138-0.055 0.0412-0.055 0.23375 0 1.6225 0.014 2.035 0.041 0.4675 0.041 0.67375 0.096 0.83875 0.1788 0-0.2475 0.0413-0.77 0.11-1.045-0.1375 0.041-0.4125 0.069-1.0588 0.096-0.3575 0.014-1.7462 0.014-1.925 0.014-0.0275 0-0.0412-0.027-0.0412-0.069v-2.915c0-0.041 0.0275-0.041 0.0412-0.041 0.99 0 1.705 0.027 2.09 0.041 0.59125 0.055 0.83875 0.11 1.0038 0.2063 0-0.4125 0.055-0.8388 0.0825-1.045-0.22 0.055-0.715 0.069-0.97625 0.069h-2.7225c-0.275 0-0.61875 0-0.78375-0.027 0.0825 0.33 0.1375 1.4713 0.1375 3.3688v2.0625z"/>
   <path style="" d="m167.65 1036.6c0 1.7463-0.055 2.8188-0.0825 3.3 0.56375-0.041 1.0312 0.027 1.6362 0.082 0.42625 0.027 0.89375 0.055 1.4025 0.055 2.1038 0 3.2312-0.7837 3.85-1.3612 0.67375-0.6875 1.2788-1.7875 1.2788-3.2175 0-1.4438-0.55-2.3925-1.155-2.9975-1.21-1.1688-2.9288-1.3888-4.5512-1.3888-0.825 0-1.5812 0.055-1.8975 0.055-0.20625 0-0.48125-0.014-0.605-0.027 0.0412 0.2888 0.12375 1.21 0.12375 3.355v2.145zm1.1275-2.2c0-1.1825 0.0137-2.255 0.0275-2.4887 0-0.041 0.0137-0.069 0.055-0.082 0.165-0.055 0.6325-0.082 1.0862-0.082 1.5125 0 2.9012 0.3712 3.7125 1.3337 0.605 0.7425 0.83875 1.6363 0.83875 2.6125 0 1.265-0.5225 2.2688-1.1825 2.8325-0.6875 0.5775-1.6225 0.7975-2.5988 0.7975-0.9625 0-1.65-0.1512-1.8425-0.275-0.0412-0.041-0.0687-0.1237-0.0687-0.3987-0.0138-0.3163-0.0275-1.2375-0.0275-2.4888v-1.76z"/>
   <path style="" d="m182.2 1035.9c0 1.9388-0.055 3.4925-0.0962 3.9738 0.165-0.027 0.37125-0.027 0.6875-0.027 0.66 0 1.6362 0.082 3.6438 0.082 0.61875 0 0.75625-0.014 0.825-0.027 0.055-0.2063 0.1925-0.8113 0.31625-1.0588-0.33 0.1513-0.88 0.275-2.42 0.275-0.59125 0-1.0725-0.014-1.3475-0.041-0.1375-0.014-0.26125-0.041-0.33-0.096-0.0687-0.055-0.0962-0.3987-0.0962-3.1762v-2.365c0-1.925 0.055-3.4375 0.11-3.9463-0.12375 0.028-0.5225 0.041-0.825 0.041-0.165 0-0.495 0-0.605-0.027 0.0825 0.3987 0.1375 2.0075 0.1375 3.9737v2.42z"/>
   <path style="" d="m189.45 1036.5c0 1.5125-0.0412 2.9837-0.0962 3.3962 0.12375-0.014 0.495-0.041 0.77-0.041 0.20625 0 0.4675 0.014 0.5775 0.027-0.0825-0.3438-0.11-1.9113-0.11-3.3825v-2.0625c0-1.65 0.055-2.9563 0.0825-3.3825-0.0962 0.014-0.39875 0.041-0.78375 0.041-0.17875 0-0.44 0-0.56375-0.014 0.0825 0.3025 0.12375 1.6912 0.12375 3.355v2.0625z"/>
   <path style="" d="m198 1036.9c0.0412 0 0.0412 0 0.055 0.027 0.385 0.9213 1.0175 2.4338 1.21 2.97 0.165-0.027 0.55-0.041 0.86625-0.041 0.1375 0 0.37125 0.014 0.605 0.027-0.31625-0.4675-0.99-1.9663-1.5538-3.2175-1.0862-2.365-2.2825-4.9913-2.42-5.28-0.17875-0.3988-0.2475-0.495-0.3025-0.495-0.0687 0-0.1375 0.1375-0.3025 0.495l-2.365 5.6925c-0.50875 1.1687-0.9625 2.2-1.265 2.8187 0.11-0.014 0.4125-0.041 0.70125-0.041 0.275 0 0.385 0 0.5225 0.027 0.1375-0.55 0.67375-1.9525 1.045-2.9563 0-0.027 0.0275-0.027 0.055-0.027h3.1488zm-2.8875-0.7425c-0.0412 0-0.0412-0.014-0.0275-0.041l1.265-3.2863 1.4025 3.2863c0 0.027 0 0.041-0.0413 0.041h-2.5988z"/>
   <path style="" d="m203.67 1031.9c0-0.027 0.0137-0.055 0.0412-0.055 0.0687-0.041 0.34375-0.069 0.7425-0.069 1.1962 0 1.815 0.6325 1.815 1.6088 0 0.495-0.23375 1.045-0.70125 1.3475-0.15125 0.096-0.26125 0.11-0.48125 0.11-0.17875 0-1.1412-0.014-1.3612-0.028-0.0412-0.014-0.055-0.027-0.055-0.055v-2.86zm3.2862 5.5962c0 1.2375-0.9625 1.8013-1.9525 1.8013-0.70125 0-1.155-0.1375-1.2788-0.2475-0.0275-0.041-0.055-0.605-0.055-2.5025v-0.9625c0-0.027 0.0137-0.041 0.0412-0.055 0.11-0.014 0.715-0.014 1.0312 0.014 0.56375 0.027 1.0588 0.1375 1.4438 0.44 0.61875 0.4675 0.77 1.0038 0.77 1.5125zm-4.4-0.9487c0 1.5125-0.055 2.9012-0.0962 3.3825 0.1925-0.014 0.55-0.027 0.75625-0.014 0.275 0.014 0.89375 0.082 1.7325 0.082 2.1588 0 3.2038-1.2787 3.2038-2.64 0-1.32-0.935-2.0487-1.98-2.3512 0.53625-0.2888 1.155-0.8938 1.155-1.87 0-0.8663-0.50875-2.035-2.5988-2.035-0.75625 0-1.2512 0.041-1.7325 0.041-0.1925 0-0.42625-0.014-0.59125-0.027 0.0825 0.4263 0.15125 1.705 0.15125 3.3688v2.0625z"/>
   <path style="" d="m210.45 1036.5c0 1.5125-0.0412 2.9837-0.0962 3.3962 0.12375-0.014 0.495-0.041 0.77-0.041 0.20625 0 0.4675 0.014 0.5775 0.027-0.0825-0.3438-0.11-1.9113-0.11-3.3825v-2.0625c0-1.65 0.055-2.9563 0.0825-3.3825-0.0962 0.014-0.39875 0.041-0.78375 0.041-0.17875 0-0.44 0-0.56375-0.014 0.0825 0.3025 0.12375 1.6912 0.12375 3.355v2.0625z"/>
   <path style="" d="m215.07 1036.5c0 1.65-0.055 2.97-0.0825 3.3825 0.1375-0.027 0.3575-0.027 0.67375-0.027 0.61875 0 1.4438 0.069 3.2175 0.069 0.55 0 0.67375-0.014 0.7425-0.028 0.055-0.1925 0.1925-0.7287 0.28875-0.9625-0.28875 0.1375-0.825 0.2338-2.1312 0.2338-0.5225 0-0.94875-0.014-1.1825-0.041-0.15125-0.014-0.2475-0.041-0.28875-0.069-0.0687-0.055-0.0962-0.2475-0.0962-2.6538v-1.9937c0-1.6363 0.0687-2.915 0.11-3.355-0.1375 0.027-0.495 0.041-0.7975 0.041-0.1925 0-0.4675 0-0.5775-0.027 0.0825 0.3438 0.12375 1.705 0.12375 3.3688v2.0625z"/>
   <path style="" d="m221.63 1036.5c0 1.5125-0.0412 2.9837-0.0962 3.3962 0.12375-0.014 0.495-0.041 0.77-0.041 0.20625 0 0.4675 0.014 0.5775 0.027-0.0825-0.3438-0.11-1.9113-0.11-3.3825v-2.0625c0-1.65 0.055-2.9563 0.0825-3.3825-0.0962 0.014-0.39875 0.041-0.78375 0.041-0.17875 0-0.44 0-0.56375-0.014 0.0825 0.3025 0.12375 1.6912 0.12375 3.355v2.0625z"/>
   <path style="" d="m224.57 1032.1c0.34375-0.11 0.78375-0.165 1.6362-0.1925 0.7975-0.027 1.1-0.027 1.6638-0.027v4.675c0 1.5125-0.0412 2.9837-0.0962 3.3962 0.15125-0.027 0.48125-0.041 0.7975-0.041 0.1925 0 0.4125 0 0.53625 0.027-0.0413-0.44-0.0962-1.9663-0.0962-3.4375v-4.62c0.88 0 1.4025 0.027 1.9112 0.055 0.78375 0.041 1.1275 0.096 1.32 0.2337 0.0137-0.33 0.0687-0.825 0.1375-1.1137-0.22 0.055-1.1138 0.096-1.8288 0.096h-3.96c-1.045 0-1.5262-0.041-1.815-0.11-0.0275 0.275-0.1375 0.8525-0.20625 1.0588z"/>
   <path style="" d="m236.69 1039.9c0.12375-0.027 0.5775-0.041 0.77-0.041 0.23375 0 0.48125 0 0.56375 0.027-0.0412-0.495-0.0962-1.8288-0.0962-3.3 0-0.2475 0.055-0.4125 0.15125-0.6188 0.33-0.6875 1.65-2.8187 1.98-3.355 0.31625-0.4812 0.83875-1.2787 1.0862-1.5537-0.0825 0.027-0.4125 0.041-0.81125 0.041-0.12375 0-0.3025 0-0.42625-0.027-0.0962 0.2338-0.34375 0.7288-0.495 0.99-0.3025 0.5363-1.43 2.5025-1.9112 3.3-0.22-0.3437-1.6775-2.7775-1.8838-3.1075-0.22-0.385-0.5225-0.9625-0.6325-1.1962-0.0962 0.027-0.6325 0.041-0.9075 0.041-0.3025 0-0.495 0-0.66-0.027 0.385 0.385 0.78375 1.0038 1.2238 1.6225 0.385 0.605 1.5675 2.4888 1.9938 3.245 0.0825 0.1238 0.165 0.3438 0.165 0.6325 0 1.8425-0.055 2.915-0.11 3.3275z"/>
   <path style="" d="m251.68 1040.1c1.1688 0 2.3512-0.2475 2.8875-0.4812 0.0275-0.3025 0.12375-0.8525 0.22-1.155-0.67375 0.5087-1.8288 0.7287-2.9838 0.7287-3.5475 0-4.895-2.5575-4.895-4.7712 0-1.1688 0.28875-2.3238 1.1962-3.2038 0.55-0.5087 1.4162-1.1 3.1212-1.1 1.6775 0 2.915 0.5225 3.4512 1.0863 0.0137-0.4675 0.11-1.0313 0.1925-1.2925-0.56375-0.1513-1.6775-0.5913-3.5612-0.5913-2.0488 0-3.3825 0.6738-4.2488 1.5125-1.2238 1.21-1.4712 2.7088-1.4712 3.7263 0 1.21 0.37125 2.86 1.6775 4.0562 1.1138 0.99 2.5438 1.485 4.4138 1.485z"/>
   <path style="" d="m260.84 1040.1c2.9562 0 4.7438-2.0763 4.7438-4.7988 0-2.4337-1.8012-4.3587-4.6062-4.3587-3.1075 0-4.7712 2.2275-4.7712 4.6612 0 2.1038 1.4438 4.51 4.6338 4.4963zm0.20625-0.715c-2.1175 0-3.5475-1.6775-3.5612-4.0563-0.0137-2.1725 1.265-3.6712 3.2862-3.6712 2.0075 0 3.5338 1.5812 3.5338 3.9462 0 2.8325-1.8288 3.7813-3.2588 3.7813z"/>
   <path style="" d="m267.55 1039.9c0.12375-0.027 0.385-0.041 0.70125-0.041 0.12375 0 0.3575 0 0.495 0.027 0-0.77 0.28875-4.4413 0.42625-6.5038 0.935 1.9663 2.0625 4.0563 3.19 6.435 0.0962 0.165 0.1375 0.1788 0.2475-0.027 0.97625-1.98 2.2-4.4 3.2725-6.435 0.12375 1.98 0.4125 5.8163 0.4125 6.545 0.165-0.027 0.45375-0.041 0.78375-0.041 0.28875 0 0.4675 0 0.5775 0.027-0.17875-0.6875-0.5225-4.0975-0.78375-6.8475-0.0688-0.6188-0.1375-1.2925-0.1925-1.8563-0.0275-0.2475-0.055-0.2887-0.11-0.2887s-0.11 0.069-0.23375 0.2612c-0.385 0.7838-0.715 1.3888-1.3888 2.5025l-2.31 4.3725-2.6675-4.9775c-0.33-0.5775-0.9625-1.7737-1.1-1.98-0.0825-0.1375-0.0962-0.1787-0.165-0.1787-0.0412 0-0.0687 0.041-0.0962 0.1925-0.0687 0.605-0.12375 1.1687-0.1925 1.8425-0.28875 2.7362-0.72875 6.325-0.86625 6.9712z"/>
   <path style="" d="m280.39 1036.5c0 1.5125-0.055 2.9287-0.0962 3.3962 0.11-0.027 0.4675-0.041 0.715-0.041 0.1925 0 0.45375 0 0.61875 0.027-0.0687-0.5088-0.11-1.9113-0.11-3.3413v-4.565c0-0.2062 0.0138-0.22 0.055-0.2337 0.0962-0.041 0.48125-0.055 0.72875-0.055 0.6325 0 1.1138 0.11 1.4575 0.3437 0.5225 0.3163 0.83875 0.88 0.83875 1.6225 0 1.3338-1.0175 1.8563-2.1588 1.9113 0.0687 0.1512 0.165 0.4812 0.1925 0.5912 1.7462 0 3.0938-1.0037 3.0938-2.6812 0-0.77-0.37125-1.375-0.67375-1.65-0.50875-0.4538-1.1825-0.77-2.6262-0.77-0.715 0-1.3062 0.041-1.65 0.041-0.17875 0-0.37125 0-0.50875-0.014 0.0687 0.4125 0.12375 1.6912 0.12375 3.355v2.0625z"/>
   <path style="" d="m291.41 1036.9c0.0412 0 0.0412 0 0.055 0.027 0.385 0.9213 1.0175 2.4338 1.21 2.97 0.165-0.027 0.55-0.041 0.86625-0.041 0.1375 0 0.37125 0.014 0.605 0.027-0.31625-0.4675-0.99-1.9663-1.5538-3.2175-1.0862-2.365-2.2825-4.9913-2.42-5.28-0.17875-0.3988-0.2475-0.495-0.3025-0.495-0.0688 0-0.1375 0.1375-0.3025 0.495l-2.365 5.6925c-0.50875 1.1687-0.9625 2.2-1.265 2.8187 0.11-0.014 0.4125-0.041 0.70125-0.041 0.275 0 0.385 0 0.5225 0.027 0.1375-0.55 0.67375-1.9525 1.045-2.9563 0-0.027 0.0275-0.027 0.055-0.027h3.1488zm-2.8875-0.7425c-0.0412 0-0.0412-0.014-0.0275-0.041l1.265-3.2863 1.4025 3.2863c0 0.027 0 0.041-0.0412 0.041h-2.5988z"/>
   <path style="" d="m297.06 1039.9c-0.11-0.9213-0.1375-4.345-0.15125-6.8338 1.155 1.2238 4.62 5.1563 5.665 6.1325 0.77 0.7425 0.935 0.88 1.0175 0.88 0.0687 0 0.0962-0.069 0.0962-0.6875 0-0.495-0.0138-1.6362-0.0138-2.3925 0.0138-2.2275 0.0825-5.225 0.15125-5.9262-0.0825 0.014-0.4125 0.041-0.67375 0.041-0.165 0-0.39875-0.014-0.495-0.027 0.0962 1.2788 0.1375 4.9775 0.15125 6.7375-1.1-0.8937-5.115-5.4175-6.2975-6.5862-0.2475-0.2338-0.34375-0.33-0.39875-0.33-0.0825 0-0.11 0.055-0.11 0.6875 0 2.0762-0.0412 7.3287-0.12375 8.3187 0.0688-0.014 0.50875-0.041 0.6325-0.041 0.17875 0 0.37125 0 0.55 0.027z"/>
   <path style="" d="m308.6 1039.9c0.12375-0.027 0.5775-0.041 0.77-0.041 0.23375 0 0.48125 0 0.56375 0.027-0.0413-0.495-0.0962-1.8288-0.0962-3.3 0-0.2475 0.055-0.4125 0.15125-0.6188 0.33-0.6875 1.65-2.8187 1.98-3.355 0.31625-0.4812 0.83875-1.2787 1.0862-1.5537-0.0825 0.027-0.4125 0.041-0.81125 0.041-0.12375 0-0.3025 0-0.42625-0.027-0.0962 0.2338-0.34375 0.7288-0.495 0.99-0.3025 0.5363-1.43 2.5025-1.9112 3.3-0.22-0.3437-1.6775-2.7775-1.8838-3.1075-0.22-0.385-0.5225-0.9625-0.6325-1.1962-0.0963 0.027-0.6325 0.041-0.9075 0.041-0.3025 0-0.495 0-0.66-0.027 0.385 0.385 0.78375 1.0038 1.2238 1.6225 0.385 0.605 1.5675 2.4888 1.9938 3.245 0.0825 0.1238 0.165 0.3438 0.165 0.6325 0 1.8425-0.055 2.915-0.11 3.3275z"/>
  </g>
 </g>
 <g fill="#fff">
  <path d="m18.096 54.082c0.3625-0.0725 1.0512-0.10875 1.9212-0.10875 0.32625 0 0.97875 0 1.3775 0.0725 0-2.2475 0.9425-14.21 1.3412-20.662 2.9 6.38 6.09 12.688 9.715 20.409 0.25375 0.58 0.3625 0.58 0.6525-0.0725 3.045-6.4162 6.9238-13.884 10.005-20.264 0.39875 6.7788 1.2688 18.342 1.2325 20.626 0.47125-0.0725 1.305-0.10875 2.2112-0.10875 0.76125 0 1.2688 0 1.5588 0.0725-0.5075-2.1025-1.4862-12.688-2.2838-21.242-0.18125-1.9575-0.3625-3.8788-0.5075-5.6188-0.10875-0.87-0.18125-1.015-0.32625-1.015-0.10875 0-0.29 0.145-0.6525 0.7975-1.1238 2.2475-2.175 4.3862-4.0962 7.7575l-7.0688 13.992-8.0112-15.769c-0.97875-1.7762-2.755-5.2925-3.2625-6.1625-0.2175-0.32625-0.32625-0.61625-0.47125-0.61625-0.10875 0-0.18125 0.10875-0.25375 0.54375-0.18125 1.74-0.3625 3.625-0.58 5.6912-0.87 8.6638-2.1025 19.756-2.5012 21.678z"/>
  <path d="m52.641 43.57c0 4.7125-0.10875 9.28-0.25375 10.512 0.32625-0.03625 1.3775-0.10875 2.1025-0.10875 0.58 0 1.2688 0.03625 1.595 0.0725-0.2175-1.0512-0.32625-5.8725-0.32625-10.476v-6.38c0-5.1475 0.145-9.1712 0.25375-10.512-0.25375 0.03625-1.16 0.10875-2.175 0.10875-0.435 0-1.1962 0-1.5225-0.03625 0.25375 0.90625 0.32625 5.2562 0.32625 10.404v6.4162z"/>
  <path d="m61.343 43.57c0 5.1112-0.145 9.2075-0.25375 10.476 0.435-0.0725 0.97875-0.0725 1.8125-0.0725 1.74 0 4.3138 0.2175 9.6062 0.2175 1.6312 0 1.9938-0.03625 2.175-0.0725 0.145-0.54375 0.5075-2.1388 0.83375-2.7912-0.87 0.39875-2.32 0.725-6.38 0.725-1.5588 0-2.8275-0.03625-3.5525-0.10875-0.3625-0.03625-0.68875-0.10875-0.87-0.25375s-0.25375-1.0512-0.25375-8.3738v-6.235c0-5.075 0.145-9.0625 0.29-10.404-0.32625 0.0725-1.3775 0.10875-2.175 0.10875-0.435 0-1.305 0-1.595-0.0725 0.2175 1.0512 0.3625 5.2925 0.3625 10.476v6.38z"/>
  <path d="m78.884 43.57c0 5.1112-0.145 9.2075-0.25375 10.476 0.435-0.0725 0.97875-0.0725 1.8125-0.0725 1.74 0 4.3138 0.2175 9.6062 0.2175 1.6312 0 1.9938-0.03625 2.175-0.0725 0.145-0.54375 0.5075-2.1388 0.83375-2.7912-0.87 0.39875-2.32 0.725-6.38 0.725-1.5588 0-2.8275-0.03625-3.5525-0.10875-0.3625-0.03625-0.68875-0.10875-0.87-0.25375s-0.25375-1.0512-0.25375-8.3738v-6.235c0-5.075 0.145-9.0625 0.29-10.404-0.32625 0.0725-1.3775 0.10875-2.175 0.10875-0.435 0-1.305 0-1.595-0.0725 0.2175 1.0512 0.3625 5.2925 0.3625 10.476v6.38z"/>
  <path d="m96.317 43.57c0 4.7125-0.10875 9.28-0.25375 10.512 0.32625-0.03625 1.3775-0.10875 2.1025-0.10875 0.58 0 1.2688 0.03625 1.595 0.0725-0.2175-1.0512-0.32625-5.8725-0.32625-10.476v-6.38c0-5.1475 0.145-9.1712 0.25375-10.512-0.25375 0.03625-1.16 0.10875-2.175 0.10875-0.435 0-1.1962 0-1.5225-0.03625 0.25375 0.90625 0.32625 5.2562 0.32625 10.404v6.4162z"/>
  <path d="m127.87 46.615c0-2.4288 0.10875-5.2562 0.2175-6.1625-0.435 0.0725-1.015 0.10875-2.03 0.10875-0.54375 0-1.2325 0-1.74-0.03625 0.2175 0.7975 0.435 3.335 0.435 5.2562v4.5675c0 0.7975-0.0363 1.0512-0.145 1.1238-1.015 0.58-3.19 0.87-4.8938 0.87-2.5375 0-6.5612-0.76125-9.4612-3.8788-1.8125-1.8125-3.335-4.8212-3.335-8.99 0-3.77 1.5588-6.7788 3.5525-8.5188 2.1388-1.885 4.9662-2.6462 7.7938-2.6462 5.6912 0 8.7725 1.9938 9.6062 2.9725 0-1.2688 0.25375-3.0088 0.39875-3.5525-0.87-0.18125-4.4588-1.5588-8.8812-1.5588-2.465 0-6.67 0.10875-10.404 2.755-2.6825 1.8125-5.6188 5.365-5.6188 11.274 0 4.205 1.595 7.5762 3.625 9.7512 2.8638 3.1538 7.2862 4.64 11.854 4.64 3.1175 0 6.67-0.5075 9.0625-1.595-0.0363-0.3625-0.0363-0.97875-0.0363-2.5738v-3.8062z"/>
  <path d="m147.87 44.44c0.10875 0 0.10875 0.03625 0.145 0.10875 1.2325 2.9362 3.2262 7.8662 3.8062 9.5338 0.435-0.0725 1.45-0.10875 2.3562-0.10875 0.39875 0 1.015 0.03625 1.6675 0.0725-0.9425-1.4138-2.9725-6.1262-4.6038-10.005-3.1175-7.3588-6.67-15.479-7.0688-16.385-0.5075-1.1962-0.68875-1.4862-0.87-1.4862-0.2175 0-0.39875 0.435-0.83375 1.4862l-7.1775 17.799c-1.45 3.5162-2.8275 6.7062-3.7338 8.6275 0.29-0.03625 1.1962-0.10875 1.9212-0.10875 0.76125 0 1.0875 0 1.45 0.0725 0.435-1.7038 2.1025-6.3438 3.2262-9.4975 0.0362-0.0725 0.0725-0.10875 0.18125-0.10875h9.5338zm-8.845-2.1025c-0.0725 0-0.10875-0.03625-0.0725-0.145l3.9512-10.549 4.2775 10.549c0.0362 0.10875 0 0.145-0.0725 0.145h-8.0838z"/>
  <path d="m162.55 54.046c-0.29-2.8638-0.39875-13.956-0.47125-21.75 4.0238 4.2775 14.282 16.566 17.255 19.575 1.9938 2.0662 2.6462 2.7188 2.9 2.7188 0.2175 0 0.29-0.29 0.29-3.4075 0-1.6312-0.0362-3.2988-0.0362-6.38 0-7.3588 0.2175-15.95 0.39875-18.125-0.25375 0.03625-1.16 0.10875-1.8125 0.10875-0.47125 0-1.0875 0-1.4138-0.0725 0.29 3.8425 0.3625 15.588 0.435 21.46-2.8638-2.6462-15.551-17.4-18.995-20.989-0.725-0.725-1.015-1.015-1.16-1.015-0.2175 0-0.29 0.18125-0.29 2.1388 0 6.4888-0.10875 22.765-0.39875 25.774 0.25375-0.03625 1.4138-0.10875 1.7762-0.10875 0.5075 0 1.015 0 1.5225 0.0725z"/>
  <path d="m199.63 43.57c0 4.7125-0.145 9.28-0.3625 10.512 0.39875-0.0725 1.4862-0.10875 2.1388-0.10875 0.61625 0 1.2688 0 1.595 0.0725-0.18125-1.595-0.32625-5.51-0.32625-10.078v-1.1238c0-0.145 0-0.2175 0.10875-0.2175 1.595 0.03625 4.205 0.0725 4.9662 0.03625 0.18125 0 0.32625 0.0725 0.47125 0.25375 1.6675 2.2475 5.0388 7.25 7.0325 9.2438 1.4862 1.5588 2.3562 2.03 3.9875 2.03 0.87 0 1.885-0.03625 2.3562-0.2175-0.68875-0.29-1.8125-1.2325-3.335-2.9362-2.5012-2.6825-5.1475-6.3438-7.4675-9.425 2.9362-2.03 4.4225-4.5675 4.4225-7.7212 0-2.61-1.3412-4.7488-3.2262-5.945-1.5588-0.97875-3.8788-1.305-6.3438-1.305-1.2688 0-4.06 0.145-4.785 0.145-0.54375 0-1.015 0-1.6675-0.0725 0.3625 1.1962 0.435 5.2925 0.435 10.476v6.38zm3.045-14.609c0-0.145 0-0.2175 0.145-0.25375 0.5075-0.10875 1.5225-0.145 2.6462-0.145 4.1688 0 6.6338 2.3562 6.6338 6.1988 0 2.61-1.305 4.495-2.755 5.5462-0.47125 0.32625-1.0512 0.435-2.1025 0.435-1.9212 0-3.7338-0.10875-4.4588-0.25375-0.0725-0.03625-0.10875-0.10875-0.10875-0.32625v-11.201z"/>
  <path d="m234.13 54.59c8.7725-0.03625 14.174-6.525 14.174-14.899 0-7.5762-5.4375-13.521-13.739-13.521-9.2075 0-14.21 6.96-14.21 14.464 0 6.525 4.3138 13.992 13.775 13.956zm0.68875-2.0662c-6.4525 0-10.984-5.075-11.02-12.688 0-6.7062 3.8788-11.636 10.114-11.636 6.0538 0 10.948 4.8212 10.948 12.361 0 8.9175-5.6912 11.962-10.041 11.962z"/>
  <path d="m255.16 54.046c-0.29-2.8638-0.39875-13.956-0.47125-21.75 4.0238 4.2775 14.282 16.566 17.255 19.575 1.9938 2.0662 2.6462 2.7188 2.9 2.7188 0.2175 0 0.29-0.29 0.29-3.4075 0-1.6312-0.0362-3.2988-0.0362-6.38 0-7.3588 0.2175-15.95 0.39875-18.125-0.25375 0.03625-1.16 0.10875-1.8125 0.10875-0.47125 0-1.0875 0-1.4138-0.0725 0.29 3.8425 0.3625 15.588 0.435 21.46-2.8638-2.6462-15.551-17.4-18.995-20.989-0.725-0.725-1.015-1.015-1.16-1.015-0.2175 0-0.29 0.18125-0.29 2.1388 0 6.4888-0.10875 22.765-0.39875 25.774 0.25375-0.03625 1.4138-0.10875 1.7762-0.10875 0.5075 0 1.015 0 1.5225 0.0725z"/>
  <path d="m294.67 44.44c0.10875 0 0.10875 0.03625 0.145 0.10875 1.2325 2.9362 3.2262 7.8662 3.8062 9.5338 0.435-0.0725 1.45-0.10875 2.3562-0.10875 0.39875 0 1.015 0.03625 1.6675 0.0725-0.9425-1.4138-2.9725-6.1262-4.6038-10.005-3.1175-7.3588-6.67-15.479-7.0688-16.385-0.5075-1.1962-0.68875-1.4862-0.87-1.4862-0.2175 0-0.39875 0.435-0.83375 1.4862l-7.1775 17.799c-1.45 3.5162-2.8275 6.7062-3.7338 8.6275 0.29-0.03625 1.1962-0.10875 1.9212-0.10875 0.76125 0 1.0875 0 1.45 0.0725 0.435-1.7038 2.1025-6.3438 3.2262-9.4975 0.0362-0.0725 0.0725-0.10875 0.18125-0.10875h9.5338zm-8.845-2.1025c-0.0725 0-0.10875-0.03625-0.0725-0.145l3.9512-10.549 4.2775 10.549c0.0362 0.10875 0 0.145-0.0725 0.145h-8.0838z"/>
  <path d="m19.546 80.037c0 5.4012-0.145 8.7-0.2175 10.222 1.5588-0.10875 3.0088 0.0725 4.7488 0.25375 1.305 0.10875 2.6825 0.18125 4.205 0.18125 6.3075 0 9.715-2.4288 11.455-4.205 2.03-2.1388 3.8062-5.5462 3.8062-10.186 0-4.3138-1.6312-7.2862-3.4438-9.1712-3.5888-3.6612-9.0988-4.2412-13.811-4.2412-2.3925 0-4.4588 0.145-5.3288 0.145-0.58 0-1.3775-0.03625-1.74-0.0725 0.145 0.83375 0.32625 3.625 0.32625 10.404v6.67zm3.1175-6.7788c0-3.7338 0-7.25 0.0725-7.9388 0-0.10875 0.03625-0.18125 0.145-0.25375 0.54375-0.145 1.9938-0.29 3.335-0.29 4.64 0 8.8812 1.16 11.382 4.205 1.885 2.32 2.5738 5.1112 2.5738 8.2288 0 4.06-1.6312 7.2138-3.6975 8.9538-2.03 1.74-4.8938 2.465-7.8662 2.465-2.9725 0-5.1475-0.435-5.655-0.83375-0.145-0.10875-0.18125-0.5075-0.2175-1.2325-0.03625-0.97875-0.0725-3.9512-0.0725-7.7938v-5.51z"/>
  <path d="m46.892 62.964c0.2175 0.90625 0.3625 5.2925 0.3625 10.476v5.6912c0 5.22 1.2688 7.5762 3.0812 9.28 1.9575 1.8125 4.9662 2.4288 7.4675 2.4288 2.3925 0 5.1838-0.3625 7.3588-2.2838 3.045-2.6825 3.4438-6.67 3.4438-10.911v-4.205c0-5.1475 0.18125-9.3888 0.32625-10.512-0.18125 0.03625-0.97875 0.10875-1.74 0.10875-0.3625 0-1.0512 0-1.45-0.0725 0.18125 1.305 0.39875 5.2925 0.39875 10.476v4.2775c0 4.1688-0.435 6.815-2.2838 8.7725-1.3775 1.5225-3.625 1.9575-5.2562 1.9575-1.7038 0-3.9512-0.25375-5.655-1.885-1.5225-1.4138-2.5738-3.2988-2.5738-8.0838v-5.0388c0-5.1475 0.145-9.3888 0.29-10.512-0.435 0.0725-1.2688 0.10875-2.2838 0.10875-0.54375 0-1.16 0-1.4862-0.0725z"/>
  <path d="m73.108 79.82c0 4.7125-0.145 9.28-0.3625 10.512 0.39875-0.0725 1.4862-0.10875 2.1388-0.10875 0.61625 0 1.2688 0 1.595 0.0725-0.18125-1.595-0.32625-5.51-0.32625-10.078v-1.1238c0-0.145 0-0.2175 0.10875-0.2175 1.595 0.03625 4.205 0.0725 4.9662 0.03625 0.18125 0 0.32625 0.0725 0.47125 0.25375 1.6675 2.2475 5.0388 7.25 7.0325 9.2438 1.4862 1.5588 2.3562 2.03 3.9875 2.03 0.87 0 1.885-0.03625 2.3562-0.2175-0.68875-0.29-1.8125-1.2325-3.335-2.9362-2.5012-2.6825-5.1475-6.3438-7.4675-9.425 2.9362-2.03 4.4225-4.5675 4.4225-7.7212 0-2.61-1.3412-4.7488-3.2262-5.945-1.5588-0.97875-3.8788-1.305-6.3438-1.305-1.2688 0-4.06 0.145-4.785 0.145-0.54375 0-1.015 0-1.6675-0.0725 0.3625 1.1962 0.435 5.2925 0.435 10.476v6.38zm3.045-14.609c0-0.145 0-0.2175 0.145-0.25375 0.5075-0.10875 1.5225-0.145 2.6462-0.145 4.1688 0 6.6338 2.3562 6.6338 6.1988 0 2.61-1.305 4.495-2.755 5.5462-0.47125 0.32625-1.0512 0.435-2.1025 0.435-1.9212 0-3.7338-0.10875-4.4588-0.25375-0.0725-0.03625-0.10875-0.10875-0.10875-0.32625v-11.201z"/>
  <path d="m113.3 80.69c0.10875 0 0.10875 0.03625 0.145 0.10875 1.2325 2.9362 3.2262 7.8662 3.8062 9.5338 0.435-0.0725 1.45-0.10875 2.3562-0.10875 0.39875 0 1.015 0.03625 1.6675 0.0725-0.9425-1.4138-2.9725-6.1262-4.6038-10.005-3.1175-7.3588-6.67-15.479-7.0688-16.385-0.5075-1.1962-0.68875-1.4862-0.87-1.4862-0.2175 0-0.39875 0.435-0.83375 1.4862l-7.1775 17.799c-1.45 3.5162-2.8275 6.7062-3.7338 8.6275 0.29-0.03625 1.1962-0.10875 1.9212-0.10875 0.76125 0 1.0875 0 1.45 0.0725 0.435-1.7038 2.1025-6.3438 3.2262-9.4975 0.0363-0.0725 0.0725-0.10875 0.18125-0.10875h9.5338zm-8.845-2.1025c-0.0725 0-0.10875-0.03625-0.0725-0.145l3.9512-10.549 4.2775 10.549c0.0362 0.10875 0 0.145-0.0725 0.145h-8.0838z"/>
  <path d="m126.98 90.296c-0.29-2.8638-0.39875-13.956-0.47125-21.75 4.0238 4.2775 14.282 16.566 17.255 19.575 1.9938 2.0662 2.6462 2.7188 2.9 2.7188 0.2175 0 0.29-0.29 0.29-3.4075 0-1.6312-0.0362-3.2988-0.0362-6.38 0-7.3588 0.2175-15.95 0.39875-18.125-0.25375 0.03625-1.16 0.10875-1.8125 0.10875-0.47125 0-1.0875 0-1.4138-0.0725 0.29 3.8425 0.3625 15.588 0.435 21.46-2.8638-2.6462-15.551-17.4-18.995-20.989-0.725-0.725-1.015-1.015-1.16-1.015-0.2175 0-0.29 0.18125-0.29 2.1388 0 6.4888-0.10875 22.765-0.39875 25.774 0.25375-0.03625 1.4138-0.10875 1.7762-0.10875 0.5075 0 1.015 0 1.5225 0.0725z"/>
  <path d="m177.02 90.84c4.8212 0 7.6125-2.7188 8.5912-3.5525 2.1388 1.74 4.3862 3.3712 6.3438 3.335 1.74 0 2.7912-0.39875 3.1175-0.76125-1.4862-0.39875-4.0962-2.03-7.395-4.8575 2.0662-2.465 4.0238-7.0325 4.64-10.078-0.725-0.0725-2.32-0.3625-3.0088-0.61625-0.29 2.4288-1.4862 6.4888-3.335 9.2438-1.015-0.83375-3.4075-3.1175-6.09-5.9812-4.3862-4.7125-5.4738-6.5612-5.4738-8.8088 0-2.7188 1.9575-4.2775 4.3862-4.2775 2.465 0 4.06 1.0875 4.9662 2.1388 0.0362-0.6525 0.25375-2.2112 0.435-2.9362-1.015-0.6525-2.6825-1.2688-5.1838-1.2688-5.1838 0-7.54 3.19-7.54 6.525 0 1.7762 0.54375 3.1538 1.5588 4.7488-3.19 2.2475-5.51 4.93-5.51 8.4462 0.0363 4.1688 3.1538 8.7 9.4975 8.7zm0.725-2.5375c-4.0962 0-7.105-2.7912-7.1412-6.815 0-2.5012 1.3412-4.5675 3.5525-6.1625 2.6462 3.4438 6.09 7.0688 9.7875 10.476-1.4138 1.3775-3.4438 2.5012-6.1988 2.5012z"/>
  <path d="m227.72 87.432c2.2838 2.465 3.625 2.9725 5.8362 2.9725 0.6525 0 1.8488-0.10875 2.1025-0.29-0.6525-0.2175-1.885-0.87-5.365-4.2775-2.1388-2.1388-7.4312-7.6125-9.6788-10.259 0.76125-0.87 7.2138-7.3225 8.3012-8.4825 2.9-2.8275 4.205-3.7338 4.7488-4.1688-0.58 0.03625-1.7038 0.10875-3.0088 0.10875-0.54375 0-0.90625-0.03625-1.2688-0.0725-0.18125 0.39875-1.5225 2.1025-3.77 4.5312-2.8275 3.2262-6.5975 7.0325-8.12 8.3738-0.0725 0.0725-0.0725 0.2175-0.0363 0.29 3.19 3.5525 6.7062 7.7212 10.259 11.274zm-13.848-7.6125c0 4.7125-0.10875 9.28-0.25375 10.512 0.3625-0.0725 1.5588-0.10875 2.2838-0.10875 0.5075 0 1.0875 0.03625 1.4138 0.0725-0.2175-1.0512-0.32625-5.8725-0.32625-10.476v-6.38c0-5.1475 0.145-9.1712 0.25375-10.512-0.39875 0.0725-1.2325 0.10875-2.175 0.10875-0.435 0-1.1962 0-1.5225-0.0725 0.25375 0.9425 0.32625 5.2925 0.32625 10.44v6.4162z"/>
  <path d="m239.28 79.82c0 4.7125-0.10875 9.28-0.25375 10.512 0.32625-0.03625 1.3775-0.10875 2.1025-0.10875 0.58 0 1.2688 0.03625 1.595 0.0725-0.2175-1.0512-0.32625-5.8725-0.32625-10.476v-6.38c0-5.1475 0.145-9.1712 0.25375-10.512-0.25375 0.03625-1.16 0.10875-2.175 0.10875-0.435 0-1.1962 0-1.5225-0.03625 0.25375 0.90625 0.32625 5.2562 0.32625 10.404v6.4162z"/>
  <path d="m251.74 90.296c-0.29-2.8638-0.39875-13.956-0.47125-21.75 4.0238 4.2775 14.282 16.566 17.255 19.575 1.9938 2.0662 2.6462 2.7188 2.9 2.7188 0.2175 0 0.29-0.29 0.29-3.4075 0-1.6312-0.0362-3.2988-0.0362-6.38 0-7.3588 0.2175-15.95 0.39875-18.125-0.25375 0.03625-1.16 0.10875-1.8125 0.10875-0.47125 0-1.0875 0-1.4138-0.0725 0.29 3.8425 0.3625 15.588 0.435 21.46-2.8638-2.6462-15.551-17.4-18.995-20.989-0.725-0.725-1.015-1.015-1.16-1.015-0.2175 0-0.29 0.18125-0.29 2.1388 0 6.4888-0.10875 22.765-0.39875 25.774 0.25375-0.03625 1.4138-0.10875 1.7762-0.10875 0.5075 0 1.015 0 1.5225 0.0725z"/>
  <path d="m300.54 82.865c0-2.4288 0.10875-5.2562 0.2175-6.1625-0.435 0.0725-1.015 0.10875-2.03 0.10875-0.54375 0-1.2325 0-1.74-0.03625 0.2175 0.7975 0.435 3.335 0.435 5.2562v4.5675c0 0.7975-0.0362 1.0512-0.145 1.1238-1.015 0.58-3.19 0.87-4.8938 0.87-2.5375 0-6.5612-0.76125-9.4612-3.8788-1.8125-1.8125-3.335-4.8212-3.335-8.99 0-3.77 1.5588-6.7788 3.5525-8.5188 2.1388-1.885 4.9662-2.6462 7.7938-2.6462 5.6912 0 8.7725 1.9938 9.6062 2.9725 0-1.2688 0.25375-3.0088 0.39875-3.5525-0.87-0.18125-4.4588-1.5588-8.8812-1.5588-2.465 0-6.67 0.10875-10.404 2.755-2.6825 1.8125-5.6188 5.365-5.6188 11.274 0 4.205 1.595 7.5762 3.625 9.7512 2.8638 3.1538 7.2862 4.64 11.854 4.64 3.1175 0 6.67-0.5075 9.0625-1.595-0.0362-0.3625-0.0362-0.97875-0.0362-2.5738v-3.8062z"/>
 </g>
</svg>
