<?xml version="1.0" encoding="UTF-8" standalone="no"?>
<svg
   xmlns:dc="http://purl.org/dc/elements/1.1/"
   xmlns:cc="http://creativecommons.org/ns#"
   xmlns:rdf="http://www.w3.org/1999/02/22-rdf-syntax-ns#"
   xmlns:svg="http://www.w3.org/2000/svg"
   xmlns="http://www.w3.org/2000/svg"
   width="320"
   height="132"
   viewBox="0 0 320 132"
   id="svg2"
   version="1.1">
  <defs
     id="defs4" />
  <metadata
     id="metadata7">
    <rdf:RDF>
      <cc:Work
         rdf:about="">
        <dc:format>image/svg+xml</dc:format>
        <dc:type
           rdf:resource="http://purl.org/dc/dcmitype/StillImage" />
        <dc:title></dc:title>
      </cc:Work>
    </rdf:RDF>
  </metadata>
  <g
     id="layer1"
     transform="translate(0,-920.36216)">
    <path
       style="fill:#800000;stroke:#800000;stroke-width:2;stroke-linejoin:round;stroke-miterlimit:4;stroke-dasharray:none"
       d="m 5,935.86218 310,0 0,86.00002 -310,0 z"
       id="rect4136" />
    <g
       style="font-style:normal;font-variant:normal;font-weight:normal;font-stretch:normal;font-size:13.75px;line-height:125%;font-family:'Trajan Sans Pro';-inkscape-font-specification:'Trajan Sans Pro';letter-spacing:0px;word-spacing:0px;fill:#000000;fill-opacity:1;stroke:none;stroke-width:1px;stroke-linecap:butt;stroke-linejoin:miter;stroke-opacity:1"
       id="text4185">
      <path
         d="m 14.92125,1036.2459 c 0.04125,0 0.04125,0.014 0.055,0.041 0.4675,1.1137 1.22375,2.9837 1.44375,3.6162 0.165,-0.027 0.55,-0.041 0.89375,-0.041 0.15125,0 0.385,0.014 0.6325,0.027 -0.3575,-0.5363 -1.1275,-2.3238 -1.74625,-3.795 -1.1825,-2.7913 -2.53,-5.8713 -2.68125,-6.215 -0.1925,-0.4538 -0.26125,-0.5638 -0.33,-0.5638 -0.0825,0 -0.15125,0.165 -0.31625,0.5638 l -2.7225,6.7512 c -0.55,1.3338 -1.0725,2.5438 -1.41625,3.2725 0.11,-0.014 0.45375,-0.041 0.72875,-0.041 0.28875,0 0.4125,0 0.55,0.027 0.165,-0.6463 0.7975,-2.4063 1.22375,-3.6025 0.01375,-0.027 0.0275,-0.041 0.06875,-0.041 l 3.61625,0 z m -3.355,-0.7975 c -0.0275,0 -0.04125,-0.014 -0.0275,-0.055 l 1.49875,-4.0012 1.6225,4.0012 c 0.01375,0.041 0,0.055 -0.0275,0.055 l -3.06625,0 z"
         style=""
         id="path4162" />
      <path
         d="m 23.840918,1035.9159 c 0,1.7875 -0.055,3.4513 -0.11,3.9875 0.12375,-0.027 0.50875,-0.041 0.7425,-0.041 0.20625,0 0.48125,0 0.64625,0.027 -0.055,-0.5913 -0.11,-2.2413 -0.11,-3.9325 l 0,-5.4313 c 0,-0.2337 0,-0.2612 0.06875,-0.275 0.09625,-0.041 0.53625,-0.069 0.83875,-0.069 0.64625,0 1.25125,0.1375 1.63625,0.4125 0.64625,0.3712 1.0175,1.045 1.0175,1.9525 0,1.5812 -1.1825,2.2 -2.48875,2.255 0.055,0.1375 0.15125,0.5087 0.1925,0.66 1.96625,0.014 3.4925,-1.1825 3.4925,-3.1213 0,-0.9075 -0.42625,-1.6087 -0.77,-1.9387 -0.5775,-0.5225 -1.27875,-0.8938 -2.915,-0.8938 -0.77,0 -1.49875,0.041 -1.8425,0.041 -0.1925,0 -0.385,0 -0.53625,-0.014 0.0825,0.4813 0.1375,1.9938 0.1375,3.96 l 0,2.42 z"
         style=""
         id="path4164" />
      <path
         d="m 31.972969,1036.5072 c 0,1.5125 -0.055,2.97 -0.11,3.3962 0.1375,-0.027 0.53625,-0.041 0.77,-0.041 0.22,0 0.45375,0 0.56375,0.027 -0.055,-0.5225 -0.11,-1.7738 -0.11,-3.2313 l 0,-0.3712 c 0,-0.041 0.01375,-0.041 0.055,-0.041 l 1.58125,0 c 0.0825,0 0.11,0.028 0.165,0.083 0.53625,0.7013 1.65,2.3375 2.32375,2.9838 0.48125,0.495 0.77,0.6325 1.375,0.6325 0.28875,0 0.67375,-0.027 0.825,-0.096 -0.20625,-0.096 -0.605,-0.3987 -1.11375,-0.9487 -0.825,-0.88 -1.69125,-2.035 -2.46125,-3.025 0.9625,-0.6463 1.47125,-1.4713 1.47125,-2.475 0,-0.8663 -0.45375,-1.5538 -1.0725,-1.925 -0.5225,-0.3163 -1.30625,-0.4263 -2.1725,-0.4263 -0.44,0 -1.4025,0.055 -1.63625,0.055 -0.20625,0 -0.37125,0 -0.605,-0.027 0.12375,0.3988 0.15125,1.705 0.15125,3.3688 l 0,2.0625 z m 1.11375,-4.6475 c 0,-0.055 0,-0.069 0.04125,-0.082 0.165,-0.041 0.50875,-0.055 0.88,-0.055 1.33375,0 2.15875,0.7425 2.15875,1.98 0,0.8112 -0.4125,1.4025 -0.89375,1.7325 -0.1375,0.096 -0.33,0.1375 -0.6875,0.1375 -0.6325,0 -1.22375,-0.041 -1.4575,-0.096 -0.0275,0 -0.04125,-0.014 -0.04125,-0.082 l 0,-3.5337 z"
         style=""
         id="path4166" />
      <path
         d="m 44.411563,1040.0547 c 2.956249,0 4.743749,-2.0763 4.743749,-4.7988 0,-2.4337 -1.80125,-4.3587 -4.60625,-4.3587 -3.107499,0 -4.771249,2.2275 -4.771249,4.6612 0,2.1038 1.443749,4.51 4.63375,4.4963 z m 0.206249,-0.715 c -2.1175,0 -3.5475,-1.6775 -3.56125,-4.0563 -0.01375,-2.1725 1.265,-3.6712 3.28625,-3.6712 2.0075,0 3.53375,1.5812 3.53375,3.9462 0,2.8325 -1.82875,3.7813 -3.25875,3.7813 z"
         style=""
         id="path4168" />
      <path
         d="m 51.603672,1036.5072 c 0,1.65 -0.055,3.025 -0.09625,3.3962 0.12375,-0.014 0.5225,-0.041 0.75625,-0.041 0.33,0 0.48125,0.014 0.59125,0.027 -0.055,-0.385 -0.11,-2.5163 -0.11,-3.3963 l 0,-0.7287 c 0,-0.041 0.01375,-0.055 0.0275,-0.055 1.1275,0 1.7325,0.014 2.10375,0.041 0.45375,0.027 0.6875,0.082 0.83875,0.165 0.01375,-0.3025 0.055,-0.88 0.09625,-1.0312 -0.12375,0.027 -0.3575,0.096 -1.03125,0.096 l -1.99375,0 c -0.0275,0 -0.04125,0 -0.04125,-0.055 0,-0.9762 0.01375,-2.0212 0.0275,-2.9975 0,-0.041 0,-0.096 0.04125,-0.096 0.97625,0 1.85625,0.014 2.24125,0.041 0.6325,0.041 0.7975,0.096 0.9625,0.165 0.01375,-0.22 0.04125,-0.6737 0.09625,-1.0037 -0.20625,0.041 -0.66,0.069 -0.97625,0.069 l -2.86,0 c -0.275,0 -0.5775,-0.014 -0.7975,-0.027 0.06875,0.3438 0.12375,1.4713 0.12375,3.3688 l 0,2.0625 z"
         style=""
         id="path4170" />
      <path
         d="m 58.223867,1036.5072 c 0,1.65 -0.06875,2.97 -0.11,3.3825 0.15125,-0.014 0.45375,-0.027 0.825,-0.027 0.50875,0 1.43,0.069 3.09375,0.069 0.45375,0 0.59125,-0.014 0.6325,-0.028 0.04125,-0.2475 0.15125,-0.7012 0.2475,-0.9625 -0.3575,0.1513 -0.9075,0.2338 -2.02125,0.2338 -0.5225,0 -0.9075,-0.027 -1.19625,-0.055 -0.11,-0.014 -0.22,-0.041 -0.26125,-0.069 -0.055,-0.055 -0.0825,-0.3712 -0.0825,-2.64 l 0,-0.7837 c 0,-0.027 0.01375,-0.055 0.04125,-0.055 0.23375,0 1.6225,0.014 2.035,0.041 0.4675,0.041 0.67375,0.096 0.83875,0.1788 0,-0.2475 0.04125,-0.77 0.11,-1.045 -0.1375,0.041 -0.4125,0.069 -1.05875,0.096 -0.3575,0.014 -1.74625,0.014 -1.925,0.014 -0.0275,0 -0.04125,-0.027 -0.04125,-0.069 l 0,-2.915 c 0,-0.041 0.0275,-0.041 0.04125,-0.041 0.99,0 1.705,0.027 2.09,0.041 0.59125,0.055 0.83875,0.11 1.00375,0.2063 0,-0.4125 0.055,-0.8388 0.0825,-1.045 -0.22,0.055 -0.715,0.069 -0.97625,0.069 l -2.7225,0 c -0.275,0 -0.61875,0 -0.78375,-0.027 0.0825,0.33 0.1375,1.4713 0.1375,3.3688 l 0,2.0625 z"
         style=""
         id="path4172" />
      <path
         d="m 64.454766,1039.5734 c 0.4125,0.275 1.22375,0.4813 2.0075,0.4813 0.605,0 1.33375,-0.1238 1.88375,-0.4813 0.83875,-0.5775 1.1,-1.4987 1.1,-2.0212 0,-0.9075 -0.28875,-1.6088 -1.74625,-2.53 l -0.59125,-0.3713 c -1.0725,-0.7012 -1.22375,-1.1275 -1.22375,-1.7325 0,-0.77 0.605,-1.2787 1.49875,-1.2787 0.9625,0 1.55375,0.3987 1.77375,0.6737 0,-0.44 0.06875,-1.0862 0.11,-1.21 -0.09625,-0.014 -0.3025,-0.041 -0.6325,-0.096 -0.275,-0.055 -0.715,-0.11 -1.1825,-0.11 -1.69125,0 -2.6675,1.0312 -2.6675,2.2687 0,0.825 0.33,1.595 1.60875,2.42 l 0.605,0.385 c 1.03125,0.66 1.27875,1.1138 1.27875,1.815 0,0.825 -0.56375,1.4988 -1.6775,1.4988 -0.935,0 -1.69125,-0.495 -2.04875,-0.9488 0.01375,0.3575 -0.055,1.0588 -0.09625,1.2375 z"
         style=""
         id="path4174" />
      <path
         d="m 71.0075,1039.5734 c 0.4125,0.275 1.22375,0.4813 2.0075,0.4813 0.605,0 1.33375,-0.1238 1.88375,-0.4813 0.83875,-0.5775 1.1,-1.4987 1.1,-2.0212 0,-0.9075 -0.28875,-1.6088 -1.74625,-2.53 l -0.59125,-0.3713 c -1.0725,-0.7012 -1.22375,-1.1275 -1.22375,-1.7325 0,-0.77 0.605,-1.2787 1.49875,-1.2787 0.9625,0 1.55375,0.3987 1.77375,0.6737 0,-0.44 0.06875,-1.0862 0.11,-1.21 -0.09625,-0.014 -0.3025,-0.041 -0.6325,-0.096 -0.275,-0.055 -0.715,-0.11 -1.1825,-0.11 -1.69125,0 -2.6675,1.0312 -2.6675,2.2687 0,0.825 0.33,1.595 1.60875,2.42 l 0.605,0.385 c 1.03125,0.66 1.27875,1.1138 1.27875,1.815 0,0.825 -0.56375,1.4988 -1.6775,1.4988 -0.935,0 -1.69125,-0.495 -2.04875,-0.9488 0.01375,0.3575 -0.055,1.0588 -0.09625,1.2375 z"
         style=""
         id="path4176" />
      <path
         d="m 78.324863,1036.5072 c 0,1.5125 -0.04125,2.9837 -0.09625,3.3962 0.12375,-0.014 0.495,-0.041 0.77,-0.041 0.20625,0 0.4675,0.014 0.5775,0.027 -0.0825,-0.3438 -0.11,-1.9113 -0.11,-3.3825 l 0,-2.0625 c 0,-1.65 0.055,-2.9563 0.0825,-3.3825 -0.09625,0.014 -0.39875,0.041 -0.78375,0.041 -0.17875,0 -0.44,0 -0.56375,-0.014 0.0825,0.3025 0.12375,1.6912 0.12375,3.355 l 0,2.0625 z"
         style=""
         id="path4178" />
      <path
         d="m 86.520938,1040.0547 c 2.956249,0 4.743749,-2.0763 4.743749,-4.7988 0,-2.4337 -1.80125,-4.3587 -4.606249,-4.3587 -3.1075,0 -4.771251,2.2275 -4.771251,4.6612 0,2.1038 1.443751,4.51 4.633751,4.4963 z m 0.206249,-0.715 c -2.117499,0 -3.5475,-1.6775 -3.56125,-4.0563 -0.01375,-2.1725 1.265,-3.6712 3.28625,-3.6712 2.0075,0 3.533751,1.5812 3.533751,3.9462 0,2.8325 -1.82875,3.7813 -3.258751,3.7813 z"
         style=""
         id="path4180" />
      <path
         d="m 94.838613,1039.8897 c -0.11,-0.9213 -0.1375,-4.345 -0.15125,-6.8338 1.155,1.2238 4.62,5.1563 5.664997,6.1325 0.77,0.7425 0.935,0.88 1.0175,0.88 0.0687,0 0.0962,-0.069 0.0962,-0.6875 0,-0.495 -0.0138,-1.6362 -0.0138,-2.3925 0.0138,-2.2275 0.0825,-5.225 0.15125,-5.9262 -0.0825,0.014 -0.4125,0.041 -0.67375,0.041 -0.165,0 -0.39875,-0.014 -0.495,-0.027 0.0962,1.2788 0.1375,4.9775 0.15125,6.7375 -1.099997,-0.8937 -5.114997,-5.4175 -6.297497,-6.5862 -0.2475,-0.2338 -0.34375,-0.33 -0.39875,-0.33 -0.0825,0 -0.11,0.055 -0.11,0.6875 0,2.0762 -0.04125,7.3287 -0.12375,8.3187 0.06875,-0.014 0.50875,-0.041 0.6325,-0.041 0.17875,0 0.37125,0 0.55,0.027 z"
         style=""
         id="path4182" />
      <path
         d="m 108.79057,1036.9059 c 0.0412,0 0.0412,0 0.055,0.027 0.385,0.9213 1.0175,2.4338 1.21,2.97 0.165,-0.027 0.55,-0.041 0.86625,-0.041 0.1375,0 0.37125,0.014 0.605,0.027 -0.31625,-0.4675 -0.99,-1.9663 -1.55375,-3.2175 -1.08625,-2.365 -2.2825,-4.9913 -2.42,-5.28 -0.17875,-0.3988 -0.2475,-0.495 -0.3025,-0.495 -0.0687,0 -0.1375,0.1375 -0.3025,0.495 l -2.365,5.6925 c -0.50875,1.1687 -0.9625,2.2 -1.265,2.8187 0.11,-0.014 0.4125,-0.041 0.70125,-0.041 0.275,0 0.385,0 0.5225,0.027 0.1375,-0.55 0.67375,-1.9525 1.045,-2.9563 0,-0.027 0.0275,-0.027 0.055,-0.027 l 3.14875,0 z m -2.8875,-0.7425 c -0.0413,0 -0.0413,-0.014 -0.0275,-0.041 l 1.265,-3.2863 1.4025,3.2863 c 0,0.027 0,0.041 -0.0413,0.041 l -2.59875,0 z"
         style=""
         id="path4184" />
      <path
         d="m 113.31754,1036.5072 c 0,1.65 -0.055,2.97 -0.0825,3.3825 0.1375,-0.027 0.3575,-0.027 0.67375,-0.027 0.61875,0 1.44375,0.069 3.2175,0.069 0.55,0 0.67375,-0.014 0.7425,-0.028 0.055,-0.1925 0.1925,-0.7287 0.28875,-0.9625 -0.28875,0.1375 -0.825,0.2338 -2.13125,0.2338 -0.5225,0 -0.94875,-0.014 -1.1825,-0.041 -0.15125,-0.014 -0.2475,-0.041 -0.28875,-0.069 -0.0688,-0.055 -0.0963,-0.2475 -0.0963,-2.6538 l 0,-1.9937 c 0,-1.6363 0.0688,-2.915 0.11,-3.355 -0.1375,0.027 -0.495,0.041 -0.7975,0.041 -0.1925,0 -0.4675,0 -0.5775,-0.027 0.0825,0.3438 0.12375,1.705 0.12375,3.3688 l 0,2.0625 z"
         style=""
         id="path4186" />
      <path
         d="m 124.10678,1035.9159 c 0,1.9388 -0.055,3.4925 -0.0962,3.9738 0.165,-0.027 0.37125,-0.027 0.6875,-0.027 0.66,0 1.63625,0.082 3.64375,0.082 0.61875,0 0.75625,-0.014 0.825,-0.027 0.055,-0.2063 0.1925,-0.8113 0.31625,-1.0588 -0.33,0.1513 -0.88,0.275 -2.42,0.275 -0.59125,0 -1.0725,-0.014 -1.3475,-0.041 -0.1375,-0.014 -0.26125,-0.041 -0.33,-0.096 -0.0688,-0.055 -0.0962,-0.3987 -0.0962,-3.1762 l 0,-2.365 c 0,-1.925 0.055,-3.4375 0.11,-3.9463 -0.12375,0.028 -0.5225,0.041 -0.825,0.041 -0.165,0 -0.495,0 -0.605,-0.027 0.0825,0.3987 0.1375,2.0075 0.1375,3.9737 l 0,2.42 z"
         style=""
         id="path4188" />
      <path
         d="m 131.36441,1036.5072 c 0,1.5125 -0.0412,2.9837 -0.0962,3.3962 0.12375,-0.014 0.495,-0.041 0.77,-0.041 0.20625,0 0.4675,0.014 0.5775,0.027 -0.0825,-0.3438 -0.11,-1.9113 -0.11,-3.3825 l 0,-2.0625 c 0,-1.65 0.055,-2.9563 0.0825,-3.3825 -0.0962,0.014 -0.39875,0.041 -0.78375,0.041 -0.17875,0 -0.44,0 -0.56375,-0.014 0.0825,0.3025 0.12375,1.6912 0.12375,3.355 l 0,2.0625 z"
         style=""
         id="path4190" />
      <path
         d="m 135.42109,1039.9034 c 0.12375,-0.027 0.385,-0.041 0.70125,-0.041 0.12375,0 0.3575,0 0.495,0.027 0,-0.77 0.28875,-4.4413 0.42625,-6.5038 0.935,1.9663 2.0625,4.0563 3.19,6.435 0.0962,0.165 0.1375,0.1788 0.2475,-0.027 0.97625,-1.98 2.2,-4.4 3.2725,-6.435 0.12375,1.98 0.4125,5.8163 0.4125,6.545 0.165,-0.027 0.45375,-0.041 0.78375,-0.041 0.28875,0 0.4675,0 0.5775,0.027 -0.17875,-0.6875 -0.5225,-4.0975 -0.78375,-6.8475 -0.0688,-0.6188 -0.1375,-1.2925 -0.1925,-1.8563 -0.0275,-0.2475 -0.055,-0.2887 -0.11,-0.2887 -0.055,0 -0.11,0.069 -0.23375,0.2612 -0.385,0.7838 -0.715,1.3888 -1.38875,2.5025 l -2.31,4.3725 -2.6675,-4.9775 c -0.33,-0.5775 -0.9625,-1.7737 -1.1,-1.98 -0.0825,-0.1375 -0.0963,-0.1787 -0.165,-0.1787 -0.0412,0 -0.0687,0.041 -0.0962,0.1925 -0.0687,0.605 -0.12375,1.1687 -0.1925,1.8425 -0.28875,2.7362 -0.72875,6.325 -0.86625,6.9712 z"
         style=""
         id="path4192" />
      <path
         d="m 148.2565,1036.5072 c 0,1.5125 -0.0412,2.9837 -0.0962,3.3962 0.12375,-0.014 0.495,-0.041 0.77,-0.041 0.20625,0 0.4675,0.014 0.5775,0.027 -0.0825,-0.3438 -0.11,-1.9113 -0.11,-3.3825 l 0,-2.0625 c 0,-1.65 0.055,-2.9563 0.0825,-3.3825 -0.0963,0.014 -0.39875,0.041 -0.78375,0.041 -0.17875,0 -0.44,0 -0.56375,-0.014 0.0825,0.3025 0.12375,1.6912 0.12375,3.355 l 0,2.0625 z"
         style=""
         id="path4194" />
      <path
         d="m 151.19814,1032.0522 c 0.34375,-0.11 0.78375,-0.165 1.63625,-0.1925 0.7975,-0.027 1.1,-0.027 1.66375,-0.027 l 0,4.675 c 0,1.5125 -0.0413,2.9837 -0.0962,3.3962 0.15125,-0.027 0.48125,-0.041 0.7975,-0.041 0.1925,0 0.4125,0 0.53625,0.027 -0.0412,-0.44 -0.0962,-1.9663 -0.0962,-3.4375 l 0,-4.62 c 0.88,0 1.4025,0.027 1.91125,0.055 0.78375,0.041 1.1275,0.096 1.32,0.2337 0.0137,-0.33 0.0687,-0.825 0.1375,-1.1137 -0.22,0.055 -1.11375,0.096 -1.82875,0.096 l -3.96,0 c -1.045,0 -1.52625,-0.041 -1.815,-0.11 -0.0275,0.275 -0.1375,0.8525 -0.20625,1.0588 z"
         style=""
         id="path4196" />
      <path
         d="m 160.75805,1036.5072 c 0,1.65 -0.0687,2.97 -0.11,3.3825 0.15125,-0.014 0.45375,-0.027 0.825,-0.027 0.50875,0 1.43,0.069 3.09375,0.069 0.45375,0 0.59125,-0.014 0.6325,-0.028 0.0413,-0.2475 0.15125,-0.7012 0.2475,-0.9625 -0.3575,0.1513 -0.9075,0.2338 -2.02125,0.2338 -0.5225,0 -0.9075,-0.027 -1.19625,-0.055 -0.11,-0.014 -0.22,-0.041 -0.26125,-0.069 -0.055,-0.055 -0.0825,-0.3712 -0.0825,-2.64 l 0,-0.7837 c 0,-0.027 0.0138,-0.055 0.0412,-0.055 0.23375,0 1.6225,0.014 2.035,0.041 0.4675,0.041 0.67375,0.096 0.83875,0.1788 0,-0.2475 0.0413,-0.77 0.11,-1.045 -0.1375,0.041 -0.4125,0.069 -1.05875,0.096 -0.3575,0.014 -1.74625,0.014 -1.925,0.014 -0.0275,0 -0.0412,-0.027 -0.0412,-0.069 l 0,-2.915 c 0,-0.041 0.0275,-0.041 0.0412,-0.041 0.99,0 1.705,0.027 2.09,0.041 0.59125,0.055 0.83875,0.11 1.00375,0.2063 0,-0.4125 0.055,-0.8388 0.0825,-1.045 -0.22,0.055 -0.715,0.069 -0.97625,0.069 l -2.7225,0 c -0.275,0 -0.61875,0 -0.78375,-0.027 0.0825,0.33 0.1375,1.4713 0.1375,3.3688 l 0,2.0625 z"
         style=""
         id="path4198" />
      <path
         d="m 167.64615,1036.5759 c 0,1.7463 -0.055,2.8188 -0.0825,3.3 0.56375,-0.041 1.03125,0.027 1.63625,0.082 0.42625,0.027 0.89375,0.055 1.4025,0.055 2.10375,0 3.23125,-0.7837 3.85,-1.3612 0.67375,-0.6875 1.27875,-1.7875 1.27875,-3.2175 0,-1.4438 -0.55,-2.3925 -1.155,-2.9975 -1.21,-1.1688 -2.92875,-1.3888 -4.55125,-1.3888 -0.825,0 -1.58125,0.055 -1.8975,0.055 -0.20625,0 -0.48125,-0.014 -0.605,-0.027 0.0412,0.2888 0.12375,1.21 0.12375,3.355 l 0,2.145 z m 1.1275,-2.2 c 0,-1.1825 0.0137,-2.255 0.0275,-2.4887 0,-0.041 0.0137,-0.069 0.055,-0.082 0.165,-0.055 0.6325,-0.082 1.08625,-0.082 1.5125,0 2.90125,0.3712 3.7125,1.3337 0.605,0.7425 0.83875,1.6363 0.83875,2.6125 0,1.265 -0.5225,2.2688 -1.1825,2.8325 -0.6875,0.5775 -1.6225,0.7975 -2.59875,0.7975 -0.9625,0 -1.65,-0.1512 -1.8425,-0.275 -0.0412,-0.041 -0.0687,-0.1237 -0.0687,-0.3987 -0.0138,-0.3163 -0.0275,-1.2375 -0.0275,-2.4888 l 0,-1.76 z"
         style=""
         id="path4200" />
      <path
         d="m 182.19516,1035.9159 c 0,1.9388 -0.055,3.4925 -0.0962,3.9738 0.165,-0.027 0.37125,-0.027 0.6875,-0.027 0.66,0 1.63625,0.082 3.64375,0.082 0.61875,0 0.75625,-0.014 0.825,-0.027 0.055,-0.2063 0.1925,-0.8113 0.31625,-1.0588 -0.33,0.1513 -0.88,0.275 -2.42,0.275 -0.59125,0 -1.0725,-0.014 -1.3475,-0.041 -0.1375,-0.014 -0.26125,-0.041 -0.33,-0.096 -0.0687,-0.055 -0.0962,-0.3987 -0.0962,-3.1762 l 0,-2.365 c 0,-1.925 0.055,-3.4375 0.11,-3.9463 -0.12375,0.028 -0.5225,0.041 -0.825,0.041 -0.165,0 -0.495,0 -0.605,-0.027 0.0825,0.3987 0.1375,2.0075 0.1375,3.9737 l 0,2.42 z"
         style=""
         id="path4202" />
      <path
         d="m 189.45279,1036.5072 c 0,1.5125 -0.0412,2.9837 -0.0962,3.3962 0.12375,-0.014 0.495,-0.041 0.77,-0.041 0.20625,0 0.4675,0.014 0.5775,0.027 -0.0825,-0.3438 -0.11,-1.9113 -0.11,-3.3825 l 0,-2.0625 c 0,-1.65 0.055,-2.9563 0.0825,-3.3825 -0.0962,0.014 -0.39875,0.041 -0.78375,0.041 -0.17875,0 -0.44,0 -0.56375,-0.014 0.0825,0.3025 0.12375,1.6912 0.12375,3.355 l 0,2.0625 z"
         style=""
         id="path4204" />
      <path
         d="m 198.00443,1036.9059 c 0.0412,0 0.0412,0 0.055,0.027 0.385,0.9213 1.0175,2.4338 1.21,2.97 0.165,-0.027 0.55,-0.041 0.86625,-0.041 0.1375,0 0.37125,0.014 0.605,0.027 -0.31625,-0.4675 -0.99,-1.9663 -1.55375,-3.2175 -1.08625,-2.365 -2.2825,-4.9913 -2.42,-5.28 -0.17875,-0.3988 -0.2475,-0.495 -0.3025,-0.495 -0.0687,0 -0.1375,0.1375 -0.3025,0.495 l -2.365,5.6925 c -0.50875,1.1687 -0.9625,2.2 -1.265,2.8187 0.11,-0.014 0.4125,-0.041 0.70125,-0.041 0.275,0 0.385,0 0.5225,0.027 0.1375,-0.55 0.67375,-1.9525 1.045,-2.9563 0,-0.027 0.0275,-0.027 0.055,-0.027 l 3.14875,0 z m -2.8875,-0.7425 c -0.0412,0 -0.0412,-0.014 -0.0275,-0.041 l 1.265,-3.2863 1.4025,3.2863 c 0,0.027 0,0.041 -0.0413,0.041 l -2.59875,0 z"
         style=""
         id="path4206" />
      <path
         d="m 203.67266,1031.8597 c 0,-0.027 0.0137,-0.055 0.0412,-0.055 0.0687,-0.041 0.34375,-0.069 0.7425,-0.069 1.19625,0 1.815,0.6325 1.815,1.6088 0,0.495 -0.23375,1.045 -0.70125,1.3475 -0.15125,0.096 -0.26125,0.11 -0.48125,0.11 -0.17875,0 -1.14125,-0.014 -1.36125,-0.028 -0.0412,-0.014 -0.055,-0.027 -0.055,-0.055 l 0,-2.86 z m 3.28625,5.5962 c 0,1.2375 -0.9625,1.8013 -1.9525,1.8013 -0.70125,0 -1.155,-0.1375 -1.27875,-0.2475 -0.0275,-0.041 -0.055,-0.605 -0.055,-2.5025 l 0,-0.9625 c 0,-0.027 0.0137,-0.041 0.0412,-0.055 0.11,-0.014 0.715,-0.014 1.03125,0.014 0.56375,0.027 1.05875,0.1375 1.44375,0.44 0.61875,0.4675 0.77,1.0038 0.77,1.5125 z m -4.4,-0.9487 c 0,1.5125 -0.055,2.9012 -0.0962,3.3825 0.1925,-0.014 0.55,-0.027 0.75625,-0.014 0.275,0.014 0.89375,0.082 1.7325,0.082 2.15875,0 3.20375,-1.2787 3.20375,-2.64 0,-1.32 -0.935,-2.0487 -1.98,-2.3512 0.53625,-0.2888 1.155,-0.8938 1.155,-1.87 0,-0.8663 -0.50875,-2.035 -2.59875,-2.035 -0.75625,0 -1.25125,0.041 -1.7325,0.041 -0.1925,0 -0.42625,-0.014 -0.59125,-0.027 0.0825,0.4263 0.15125,1.705 0.15125,3.3688 l 0,2.0625 z"
         style=""
         id="path4208" />
      <path
         d="m 210.45377,1036.5072 c 0,1.5125 -0.0412,2.9837 -0.0962,3.3962 0.12375,-0.014 0.495,-0.041 0.77,-0.041 0.20625,0 0.4675,0.014 0.5775,0.027 -0.0825,-0.3438 -0.11,-1.9113 -0.11,-3.3825 l 0,-2.0625 c 0,-1.65 0.055,-2.9563 0.0825,-3.3825 -0.0962,0.014 -0.39875,0.041 -0.78375,0.041 -0.17875,0 -0.44,0 -0.56375,-0.014 0.0825,0.3025 0.12375,1.6912 0.12375,3.355 l 0,2.0625 z"
         style=""
         id="path4210" />
      <path
         d="m 215.07291,1036.5072 c 0,1.65 -0.055,2.97 -0.0825,3.3825 0.1375,-0.027 0.3575,-0.027 0.67375,-0.027 0.61875,0 1.44375,0.069 3.2175,0.069 0.55,0 0.67375,-0.014 0.7425,-0.028 0.055,-0.1925 0.1925,-0.7287 0.28875,-0.9625 -0.28875,0.1375 -0.825,0.2338 -2.13125,0.2338 -0.5225,0 -0.94875,-0.014 -1.1825,-0.041 -0.15125,-0.014 -0.2475,-0.041 -0.28875,-0.069 -0.0687,-0.055 -0.0962,-0.2475 -0.0962,-2.6538 l 0,-1.9937 c 0,-1.6363 0.0687,-2.915 0.11,-3.355 -0.1375,0.027 -0.495,0.041 -0.7975,0.041 -0.1925,0 -0.4675,0 -0.5775,-0.027 0.0825,0.3438 0.12375,1.705 0.12375,3.3688 l 0,2.0625 z"
         style=""
         id="path4212" />
      <path
         d="m 221.62564,1036.5072 c 0,1.5125 -0.0412,2.9837 -0.0962,3.3962 0.12375,-0.014 0.495,-0.041 0.77,-0.041 0.20625,0 0.4675,0.014 0.5775,0.027 -0.0825,-0.3438 -0.11,-1.9113 -0.11,-3.3825 l 0,-2.0625 c 0,-1.65 0.055,-2.9563 0.0825,-3.3825 -0.0962,0.014 -0.39875,0.041 -0.78375,0.041 -0.17875,0 -0.44,0 -0.56375,-0.014 0.0825,0.3025 0.12375,1.6912 0.12375,3.355 l 0,2.0625 z"
         style=""
         id="path4214" />
      <path
         d="m 224.56729,1032.0522 c 0.34375,-0.11 0.78375,-0.165 1.63625,-0.1925 0.7975,-0.027 1.1,-0.027 1.66375,-0.027 l 0,4.675 c 0,1.5125 -0.0412,2.9837 -0.0962,3.3962 0.15125,-0.027 0.48125,-0.041 0.7975,-0.041 0.1925,0 0.4125,0 0.53625,0.027 -0.0413,-0.44 -0.0962,-1.9663 -0.0962,-3.4375 l 0,-4.62 c 0.88,0 1.4025,0.027 1.91125,0.055 0.78375,0.041 1.1275,0.096 1.32,0.2337 0.0137,-0.33 0.0687,-0.825 0.1375,-1.1137 -0.22,0.055 -1.11375,0.096 -1.82875,0.096 l -3.96,0 c -1.045,0 -1.52625,-0.041 -1.815,-0.11 -0.0275,0.275 -0.1375,0.8525 -0.20625,1.0588 z"
         style=""
         id="path4216" />
      <path
         d="m 236.68576,1039.9034 c 0.12375,-0.027 0.5775,-0.041 0.77,-0.041 0.23375,0 0.48125,0 0.56375,0.027 -0.0412,-0.495 -0.0962,-1.8288 -0.0962,-3.3 0,-0.2475 0.055,-0.4125 0.15125,-0.6188 0.33,-0.6875 1.65,-2.8187 1.98,-3.355 0.31625,-0.4812 0.83875,-1.2787 1.08625,-1.5537 -0.0825,0.027 -0.4125,0.041 -0.81125,0.041 -0.12375,0 -0.3025,0 -0.42625,-0.027 -0.0962,0.2338 -0.34375,0.7288 -0.495,0.99 -0.3025,0.5363 -1.43,2.5025 -1.91125,3.3 -0.22,-0.3437 -1.6775,-2.7775 -1.88375,-3.1075 -0.22,-0.385 -0.5225,-0.9625 -0.6325,-1.1962 -0.0962,0.027 -0.6325,0.041 -0.9075,0.041 -0.3025,0 -0.495,0 -0.66,-0.027 0.385,0.385 0.78375,1.0038 1.22375,1.6225 0.385,0.605 1.5675,2.4888 1.99375,3.245 0.0825,0.1238 0.165,0.3438 0.165,0.6325 0,1.8425 -0.055,2.915 -0.11,3.3275 z"
         style=""
         id="path4218" />
      <path
         d="m 251.67756,1040.0959 c 1.16875,0 2.35125,-0.2475 2.8875,-0.4812 0.0275,-0.3025 0.12375,-0.8525 0.22,-1.155 -0.67375,0.5087 -1.82875,0.7287 -2.98375,0.7287 -3.5475,0 -4.895,-2.5575 -4.895,-4.7712 0,-1.1688 0.28875,-2.3238 1.19625,-3.2038 0.55,-0.5087 1.41625,-1.1 3.12125,-1.1 1.6775,0 2.915,0.5225 3.45125,1.0863 0.0137,-0.4675 0.11,-1.0313 0.1925,-1.2925 -0.56375,-0.1513 -1.6775,-0.5913 -3.56125,-0.5913 -2.04875,0 -3.3825,0.6738 -4.24875,1.5125 -1.22375,1.21 -1.47125,2.7088 -1.47125,3.7263 0,1.21 0.37125,2.86 1.6775,4.0562 1.11375,0.99 2.54375,1.485 4.41375,1.485 z"
         style=""
         id="path4220" />
      <path
         d="m 260.83979,1040.0547 c 2.95625,0 4.74375,-2.0763 4.74375,-4.7988 0,-2.4337 -1.80125,-4.3587 -4.60625,-4.3587 -3.1075,0 -4.77125,2.2275 -4.77125,4.6612 0,2.1038 1.44375,4.51 4.63375,4.4963 z m 0.20625,-0.715 c -2.1175,0 -3.5475,-1.6775 -3.56125,-4.0563 -0.0137,-2.1725 1.265,-3.6712 3.28625,-3.6712 2.0075,0 3.53375,1.5812 3.53375,3.9462 0,2.8325 -1.82875,3.7813 -3.25875,3.7813 z"
         style=""
         id="path4222" />
      <path
         d="m 267.55,1039.9034 c 0.12375,-0.027 0.385,-0.041 0.70125,-0.041 0.12375,0 0.3575,0 0.495,0.027 0,-0.77 0.28875,-4.4413 0.42625,-6.5038 0.935,1.9663 2.0625,4.0563 3.19,6.435 0.0962,0.165 0.1375,0.1788 0.2475,-0.027 0.97625,-1.98 2.2,-4.4 3.2725,-6.435 0.12375,1.98 0.4125,5.8163 0.4125,6.545 0.165,-0.027 0.45375,-0.041 0.78375,-0.041 0.28875,0 0.4675,0 0.5775,0.027 -0.17875,-0.6875 -0.5225,-4.0975 -0.78375,-6.8475 -0.0688,-0.6188 -0.1375,-1.2925 -0.1925,-1.8563 -0.0275,-0.2475 -0.055,-0.2887 -0.11,-0.2887 -0.055,0 -0.11,0.069 -0.23375,0.2612 -0.385,0.7838 -0.715,1.3888 -1.38875,2.5025 l -2.31,4.3725 -2.6675,-4.9775 c -0.33,-0.5775 -0.9625,-1.7737 -1.1,-1.98 -0.0825,-0.1375 -0.0962,-0.1787 -0.165,-0.1787 -0.0412,0 -0.0687,0.041 -0.0962,0.1925 -0.0687,0.605 -0.12375,1.1687 -0.1925,1.8425 -0.28875,2.7362 -0.72875,6.325 -0.86625,6.9712 z"
         style=""
         id="path4224" />
      <path
         d="m 280.38541,1036.5072 c 0,1.5125 -0.055,2.9287 -0.0962,3.3962 0.11,-0.027 0.4675,-0.041 0.715,-0.041 0.1925,0 0.45375,0 0.61875,0.027 -0.0687,-0.5088 -0.11,-1.9113 -0.11,-3.3413 l 0,-4.565 c 0,-0.2062 0.0138,-0.22 0.055,-0.2337 0.0962,-0.041 0.48125,-0.055 0.72875,-0.055 0.6325,0 1.11375,0.11 1.4575,0.3437 0.5225,0.3163 0.83875,0.88 0.83875,1.6225 0,1.3338 -1.0175,1.8563 -2.15875,1.9113 0.0687,0.1512 0.165,0.4812 0.1925,0.5912 1.74625,0 3.09375,-1.0037 3.09375,-2.6812 0,-0.77 -0.37125,-1.375 -0.67375,-1.65 -0.50875,-0.4538 -1.1825,-0.77 -2.62625,-0.77 -0.715,0 -1.30625,0.041 -1.65,0.041 -0.17875,0 -0.37125,0 -0.50875,-0.014 0.0687,0.4125 0.12375,1.6912 0.12375,3.355 l 0,2.0625 z"
         style=""
         id="path4226" />
      <path
         d="m 291.40775,1036.9059 c 0.0412,0 0.0412,0 0.055,0.027 0.385,0.9213 1.0175,2.4338 1.21,2.97 0.165,-0.027 0.55,-0.041 0.86625,-0.041 0.1375,0 0.37125,0.014 0.605,0.027 -0.31625,-0.4675 -0.99,-1.9663 -1.55375,-3.2175 -1.08625,-2.365 -2.2825,-4.9913 -2.42,-5.28 -0.17875,-0.3988 -0.2475,-0.495 -0.3025,-0.495 -0.0688,0 -0.1375,0.1375 -0.3025,0.495 l -2.365,5.6925 c -0.50875,1.1687 -0.9625,2.2 -1.265,2.8187 0.11,-0.014 0.4125,-0.041 0.70125,-0.041 0.275,0 0.385,0 0.5225,0.027 0.1375,-0.55 0.67375,-1.9525 1.045,-2.9563 0,-0.027 0.0275,-0.027 0.055,-0.027 l 3.14875,0 z m -2.8875,-0.7425 c -0.0412,0 -0.0412,-0.014 -0.0275,-0.041 l 1.265,-3.2863 1.4025,3.2863 c 0,0.027 0,0.041 -0.0412,0.041 l -2.59875,0 z"
         style=""
         id="path4228" />
      <path
         d="m 297.06029,1039.8897 c -0.11,-0.9213 -0.1375,-4.345 -0.15125,-6.8338 1.155,1.2238 4.62,5.1563 5.665,6.1325 0.77,0.7425 0.935,0.88 1.0175,0.88 0.0687,0 0.0962,-0.069 0.0962,-0.6875 0,-0.495 -0.0138,-1.6362 -0.0138,-2.3925 0.0138,-2.2275 0.0825,-5.225 0.15125,-5.9262 -0.0825,0.014 -0.4125,0.041 -0.67375,0.041 -0.165,0 -0.39875,-0.014 -0.495,-0.027 0.0962,1.2788 0.1375,4.9775 0.15125,6.7375 -1.1,-0.8937 -5.115,-5.4175 -6.2975,-6.5862 -0.2475,-0.2338 -0.34375,-0.33 -0.39875,-0.33 -0.0825,0 -0.11,0.055 -0.11,0.6875 0,2.0762 -0.0412,7.3287 -0.12375,8.3187 0.0688,-0.014 0.50875,-0.041 0.6325,-0.041 0.17875,0 0.37125,0 0.55,0.027 z"
         style=""
         id="path4230" />
      <path
         d="m 308.60471,1039.9034 c 0.12375,-0.027 0.5775,-0.041 0.77,-0.041 0.23375,0 0.48125,0 0.56375,0.027 -0.0413,-0.495 -0.0962,-1.8288 -0.0962,-3.3 0,-0.2475 0.055,-0.4125 0.15125,-0.6188 0.33,-0.6875 1.65,-2.8187 1.98,-3.355 0.31625,-0.4812 0.83875,-1.2787 1.08625,-1.5537 -0.0825,0.027 -0.4125,0.041 -0.81125,0.041 -0.12375,0 -0.3025,0 -0.42625,-0.027 -0.0962,0.2338 -0.34375,0.7288 -0.495,0.99 -0.3025,0.5363 -1.43,2.5025 -1.91125,3.3 -0.22,-0.3437 -1.6775,-2.7775 -1.88375,-3.1075 -0.22,-0.385 -0.5225,-0.9625 -0.6325,-1.1962 -0.0963,0.027 -0.6325,0.041 -0.9075,0.041 -0.3025,0 -0.495,0 -0.66,-0.027 0.385,0.385 0.78375,1.0038 1.22375,1.6225 0.385,0.605 1.5675,2.4888 1.99375,3.245 0.0825,0.1238 0.165,0.3438 0.165,0.6325 0,1.8425 -0.055,2.915 -0.11,3.3275 z"
         style=""
         id="path4232" />
    </g>
  </g>
  <g
     id="layer2">
    <g
       id="text4139"
       style="font-style:normal;font-variant:normal;font-weight:normal;font-stretch:normal;font-size:36.25px;line-height:100%;font-family:'Trajan Sans Pro';-inkscape-font-specification:'Trajan Sans Pro';letter-spacing:0px;word-spacing:0px;fill:#ffffff;fill-opacity:1;stroke:none;stroke-width:1px;stroke-linecap:butt;stroke-linejoin:miter;stroke-opacity:1">
      <path
         id="path3377"
         style="font-style:normal;font-variant:normal;font-weight:normal;font-stretch:normal;font-size:36.25px;line-height:100%;font-family:'Trajan Sans Pro';-inkscape-font-specification:'Trajan Sans Pro';letter-spacing:-2px;word-spacing:1px;fill:#ffffff"
         d="m 18.095724,54.082429 c 0.3625,-0.0725 1.05125,-0.10875 1.92125,-0.10875 0.32625,0 0.97875,0 1.3775,0.0725 0,-2.2475 0.9425,-14.21 1.34125,-20.6625 2.9,6.38 6.09,12.6875 9.715,20.40875 0.25375,0.58 0.3625,0.58 0.6525,-0.0725 3.045,-6.41625 6.92375,-13.88375 10.005,-20.26375 0.39875,6.77875 1.26875,18.3425 1.2325,20.62625 0.47125,-0.0725 1.305,-0.10875 2.21125,-0.10875 0.76125,0 1.26875,0 1.55875,0.0725 -0.5075,-2.1025 -1.48625,-12.6875 -2.28375,-21.2425 -0.18125,-1.9575 -0.3625,-3.87875 -0.5075,-5.61875 -0.10875,-0.87 -0.18125,-1.015 -0.32625,-1.015 -0.10875,0 -0.29,0.145 -0.6525,0.7975 -1.12375,2.2475 -2.175,4.38625 -4.09625,7.7575 l -7.06875,13.9925 -8.01125,-15.76875 c -0.97875,-1.77625 -2.755,-5.2925 -3.2625,-6.1625 -0.2175,-0.32625 -0.32625,-0.61625 -0.47125,-0.61625 -0.10875,0 -0.18125,0.10875 -0.25375,0.54375 -0.18125,1.74 -0.3625,3.625 -0.58,5.69125 -0.87,8.66375 -2.1025,19.75625 -2.50125,21.6775 z" />
      <path
         id="path3379"
         style="font-style:normal;font-variant:normal;font-weight:normal;font-stretch:normal;font-size:36.25px;line-height:100%;font-family:'Trajan Sans Pro';-inkscape-font-specification:'Trajan Sans Pro';letter-spacing:-2px;word-spacing:1px;fill:#ffffff"
         d="m 52.640938,43.569929 c 0,4.7125 -0.10875,9.28 -0.25375,10.5125 0.32625,-0.03625 1.3775,-0.10875 2.1025,-0.10875 0.58,0 1.26875,0.03625 1.595,0.0725 -0.2175,-1.05125 -0.32625,-5.8725 -0.32625,-10.47625 l 0,-6.38 c 0,-5.1475 0.145,-9.17125 0.25375,-10.5125 -0.25375,0.03625 -1.16,0.10875 -2.175,0.10875 -0.435,0 -1.19625,0 -1.5225,-0.03625 0.25375,0.90625 0.32625,5.25625 0.32625,10.40375 l 0,6.41625 z" />
      <path
         id="path3381"
         style="font-style:normal;font-variant:normal;font-weight:normal;font-stretch:normal;font-size:36.25px;line-height:100%;font-family:'Trajan Sans Pro';-inkscape-font-specification:'Trajan Sans Pro';letter-spacing:-2px;word-spacing:1px;fill:#ffffff"
         d="m 61.343438,43.569929 c 0,5.11125 -0.145,9.2075 -0.25375,10.47625 0.435,-0.0725 0.97875,-0.0725 1.8125,-0.0725 1.74,0 4.31375,0.2175 9.60625,0.2175 1.63125,0 1.99375,-0.03625 2.175,-0.0725 0.145,-0.54375 0.5075,-2.13875 0.83375,-2.79125 -0.87,0.39875 -2.32,0.725 -6.38,0.725 -1.55875,0 -2.8275,-0.03625 -3.5525,-0.10875 -0.3625,-0.03625 -0.68875,-0.10875 -0.87,-0.25375 -0.18125,-0.145 -0.25375,-1.05125 -0.25375,-8.37375 l 0,-6.235 c 0,-5.075 0.145,-9.0625 0.29,-10.40375 -0.32625,0.0725 -1.3775,0.10875 -2.175,0.10875 -0.435,0 -1.305,0 -1.595,-0.0725 0.2175,1.05125 0.3625,5.2925 0.3625,10.47625 l 0,6.38 z" />
      <path
         id="path3383"
         style="font-style:normal;font-variant:normal;font-weight:normal;font-stretch:normal;font-size:36.25px;line-height:100%;font-family:'Trajan Sans Pro';-inkscape-font-specification:'Trajan Sans Pro';letter-spacing:-2px;word-spacing:1px;fill:#ffffff"
         d="m 78.884454,43.569929 c 0,5.11125 -0.145,9.2075 -0.25375,10.47625 0.435,-0.0725 0.97875,-0.0725 1.8125,-0.0725 1.74,0 4.31375,0.2175 9.60625,0.2175 1.63125,0 1.99375,-0.03625 2.175,-0.0725 0.145,-0.54375 0.5075,-2.13875 0.83375,-2.79125 -0.87,0.39875 -2.32,0.725 -6.38,0.725 -1.55875,0 -2.8275,-0.03625 -3.5525,-0.10875 -0.3625,-0.03625 -0.68875,-0.10875 -0.87,-0.25375 -0.18125,-0.145 -0.25375,-1.05125 -0.25375,-8.37375 l 0,-6.235 c 0,-5.075 0.145,-9.0625 0.29,-10.40375 -0.32625,0.0725 -1.3775,0.10875 -2.175,0.10875 -0.435,0 -1.305,0 -1.595,-0.0725 0.2175,1.05125 0.3625,5.2925 0.3625,10.47625 l 0,6.38 z" />
      <path
         id="path3385"
         style="font-style:normal;font-variant:normal;font-weight:normal;font-stretch:normal;font-size:36.25px;line-height:100%;font-family:'Trajan Sans Pro';-inkscape-font-specification:'Trajan Sans Pro';letter-spacing:-2px;word-spacing:1px;fill:#ffffff"
         d="m 96.31672,43.569929 c 0,4.7125 -0.10875,9.28 -0.25375,10.5125 0.32625,-0.03625 1.3775,-0.10875 2.1025,-0.10875 0.58,0 1.26875,0.03625 1.595,0.0725 -0.2175,-1.05125 -0.32625,-5.8725 -0.32625,-10.47625 l 0,-6.38 c 0,-5.1475 0.145,-9.17125 0.25375,-10.5125 -0.25375,0.03625 -1.16,0.10875 -2.175,0.10875 -0.435,0 -1.19625,0 -1.5225,-0.03625 0.25375,0.90625 0.32625,5.25625 0.32625,10.40375 l 0,6.41625 z" />
      <path
         id="path3387"
         style="font-style:normal;font-variant:normal;font-weight:normal;font-stretch:normal;font-size:36.25px;line-height:100%;font-family:'Trajan Sans Pro';-inkscape-font-specification:'Trajan Sans Pro';letter-spacing:-2px;word-spacing:1px;fill:#ffffff"
         d="m 127.87047,46.614929 c 0,-2.42875 0.10875,-5.25625 0.2175,-6.1625 -0.435,0.0725 -1.015,0.10875 -2.03,0.10875 -0.54375,0 -1.2325,0 -1.74,-0.03625 0.2175,0.7975 0.435,3.335 0.435,5.25625 l 0,4.5675 c 0,0.7975 -0.0363,1.05125 -0.145,1.12375 -1.015,0.58 -3.19,0.87 -4.89375,0.87 -2.5375,0 -6.56125,-0.76125 -9.46125,-3.87875 -1.8125,-1.8125 -3.335,-4.82125 -3.335,-8.99 0,-3.77 1.55875,-6.77875 3.5525,-8.51875 2.13875,-1.885 4.96625,-2.64625 7.79375,-2.64625 5.69125,0 8.7725,1.99375 9.60625,2.9725 0,-1.26875 0.25375,-3.00875 0.39875,-3.5525 -0.87,-0.18125 -4.45875,-1.55875 -8.88125,-1.55875 -2.465,0 -6.67,0.10875 -10.40375,2.755 -2.6825,1.8125 -5.61875,5.365 -5.61875,11.27375 0,4.205 1.595,7.57625 3.625,9.75125 2.86375,3.15375 7.28625,4.64 11.85375,4.64 3.1175,0 6.67,-0.5075 9.0625,-1.595 -0.0363,-0.3625 -0.0363,-0.97875 -0.0363,-2.57375 l 0,-3.80625 z" />
      <path
         id="path3389"
         style="font-style:normal;font-variant:normal;font-weight:normal;font-stretch:normal;font-size:36.25px;line-height:100%;font-family:'Trajan Sans Pro';-inkscape-font-specification:'Trajan Sans Pro';letter-spacing:-2px;word-spacing:1px;fill:#ffffff"
         d="m 147.87252,44.439929 c 0.10875,0 0.10875,0.03625 0.145,0.10875 1.2325,2.93625 3.22625,7.86625 3.80625,9.53375 0.435,-0.0725 1.45,-0.10875 2.35625,-0.10875 0.39875,0 1.015,0.03625 1.6675,0.0725 -0.9425,-1.41375 -2.9725,-6.12625 -4.60375,-10.005 -3.1175,-7.35875 -6.67,-15.47875 -7.06875,-16.385 -0.5075,-1.19625 -0.68875,-1.48625 -0.87,-1.48625 -0.2175,0 -0.39875,0.435 -0.83375,1.48625 l -7.1775,17.79875 c -1.45,3.51625 -2.8275,6.70625 -3.73375,8.6275 0.29,-0.03625 1.19625,-0.10875 1.92125,-0.10875 0.76125,0 1.0875,0 1.45,0.0725 0.435,-1.70375 2.1025,-6.34375 3.22625,-9.4975 0.0362,-0.0725 0.0725,-0.10875 0.18125,-0.10875 l 9.53375,0 z m -8.845,-2.1025 c -0.0725,0 -0.10875,-0.03625 -0.0725,-0.145 l 3.95125,-10.54875 4.2775,10.54875 c 0.0362,0.10875 0,0.145 -0.0725,0.145 l -8.08375,0 z" />
      <path
         id="path3391"
         style="font-style:normal;font-variant:normal;font-weight:normal;font-stretch:normal;font-size:36.25px;line-height:100%;font-family:'Trajan Sans Pro';-inkscape-font-specification:'Trajan Sans Pro';letter-spacing:-2px;word-spacing:1px;fill:#ffffff"
         d="m 162.55205,54.046179 c -0.29,-2.86375 -0.39875,-13.95625 -0.47125,-21.75 4.02375,4.2775 14.2825,16.56625 17.255,19.575 1.99375,2.06625 2.64625,2.71875 2.9,2.71875 0.2175,0 0.29,-0.29 0.29,-3.4075 0,-1.63125 -0.0362,-3.29875 -0.0362,-6.38 0,-7.35875 0.2175,-15.95 0.39875,-18.125 -0.25375,0.03625 -1.16,0.10875 -1.8125,0.10875 -0.47125,0 -1.0875,0 -1.41375,-0.0725 0.29,3.8425 0.3625,15.5875 0.435,21.46 -2.86375,-2.64625 -15.55125,-17.4 -18.995,-20.98875 -0.725,-0.725 -1.015,-1.015 -1.16,-1.015 -0.2175,0 -0.29,0.18125 -0.29,2.13875 0,6.48875 -0.10875,22.765 -0.39875,25.77375 0.25375,-0.03625 1.41375,-0.10875 1.77625,-0.10875 0.5075,0 1.015,0 1.5225,0.0725 z" />
      <path
         id="path3393"
         style="font-style:normal;font-variant:normal;font-weight:normal;font-stretch:normal;font-size:36.25px;line-height:100%;font-family:'Trajan Sans Pro';-inkscape-font-specification:'Trajan Sans Pro';letter-spacing:-2px;word-spacing:1px;fill:#ffffff"
         d="m 199.62983,43.569929 c 0,4.7125 -0.145,9.28 -0.3625,10.5125 0.39875,-0.0725 1.48625,-0.10875 2.13875,-0.10875 0.61625,0 1.26875,0 1.595,0.0725 -0.18125,-1.595 -0.32625,-5.51 -0.32625,-10.0775 l 0,-1.12375 c 0,-0.145 0,-0.2175 0.10875,-0.2175 1.595,0.03625 4.205,0.0725 4.96625,0.03625 0.18125,0 0.32625,0.0725 0.47125,0.25375 1.6675,2.2475 5.03875,7.25 7.0325,9.24375 1.48625,1.55875 2.35625,2.03 3.9875,2.03 0.87,0 1.885,-0.03625 2.35625,-0.2175 -0.68875,-0.29 -1.8125,-1.2325 -3.335,-2.93625 -2.50125,-2.6825 -5.1475,-6.34375 -7.4675,-9.425 2.93625,-2.03 4.4225,-4.5675 4.4225,-7.72125 0,-2.61 -1.34125,-4.74875 -3.22625,-5.945 -1.55875,-0.97875 -3.87875,-1.305 -6.34375,-1.305 -1.26875,0 -4.06,0.145 -4.785,0.145 -0.54375,0 -1.015,0 -1.6675,-0.0725 0.3625,1.19625 0.435,5.2925 0.435,10.47625 l 0,6.38 z m 3.045,-14.60875 c 0,-0.145 0,-0.2175 0.145,-0.25375 0.5075,-0.10875 1.5225,-0.145 2.64625,-0.145 4.16875,0 6.63375,2.35625 6.63375,6.19875 0,2.61 -1.305,4.495 -2.755,5.54625 -0.47125,0.32625 -1.05125,0.435 -2.1025,0.435 -1.92125,0 -3.73375,-0.10875 -4.45875,-0.25375 -0.0725,-0.03625 -0.10875,-0.10875 -0.10875,-0.32625 l 0,-11.20125 z" />
      <path
         id="path3395"
         style="font-style:normal;font-variant:normal;font-weight:normal;font-stretch:normal;font-size:36.25px;line-height:100%;font-family:'Trajan Sans Pro';-inkscape-font-specification:'Trajan Sans Pro';letter-spacing:-2px;word-spacing:1px;fill:#ffffff"
         d="m 234.13131,54.589929 c 8.7725,-0.03625 14.17375,-6.525 14.17375,-14.89875 0,-7.57625 -5.4375,-13.52125 -13.73875,-13.52125 -9.2075,0 -14.21,6.96 -14.21,14.46375 0,6.525 4.31375,13.9925 13.775,13.95625 z m 0.68875,-2.06625 c -6.4525,0 -10.98375,-5.075 -11.02,-12.6875 0,-6.70625 3.87875,-11.63625 10.11375,-11.63625 6.05375,0 10.9475,4.82125 10.9475,12.36125 0,8.9175 -5.69125,11.9625 -10.04125,11.9625 z" />
      <path
         id="path3397"
         style="font-style:normal;font-variant:normal;font-weight:normal;font-stretch:normal;font-size:36.25px;line-height:100%;font-family:'Trajan Sans Pro';-inkscape-font-specification:'Trajan Sans Pro';letter-spacing:-2px;word-spacing:1px;fill:#ffffff"
         d="m 255.15557,54.046179 c -0.29,-2.86375 -0.39875,-13.95625 -0.47125,-21.75 4.02375,4.2775 14.2825,16.56625 17.255,19.575 1.99375,2.06625 2.64625,2.71875 2.9,2.71875 0.2175,0 0.29,-0.29 0.29,-3.4075 0,-1.63125 -0.0362,-3.29875 -0.0362,-6.38 0,-7.35875 0.2175,-15.95 0.39875,-18.125 -0.25375,0.03625 -1.16,0.10875 -1.8125,0.10875 -0.47125,0 -1.0875,0 -1.41375,-0.0725 0.29,3.8425 0.3625,15.5875 0.435,21.46 -2.86375,-2.64625 -15.55125,-17.4 -18.995,-20.98875 -0.725,-0.725 -1.015,-1.015 -1.16,-1.015 -0.2175,0 -0.29,0.18125 -0.29,2.13875 0,6.48875 -0.10875,22.765 -0.39875,25.77375 0.25375,-0.03625 1.41375,-0.10875 1.77625,-0.10875 0.5075,0 1.015,0 1.5225,0.0725 z" />
      <path
         id="path3399"
         style="font-style:normal;font-variant:normal;font-weight:normal;font-stretch:normal;font-size:36.25px;line-height:100%;font-family:'Trajan Sans Pro';-inkscape-font-specification:'Trajan Sans Pro';letter-spacing:-2px;word-spacing:1px;fill:#ffffff"
         d="m 294.66988,44.439929 c 0.10875,0 0.10875,0.03625 0.145,0.10875 1.2325,2.93625 3.22625,7.86625 3.80625,9.53375 0.435,-0.0725 1.45,-0.10875 2.35625,-0.10875 0.39875,0 1.015,0.03625 1.6675,0.0725 -0.9425,-1.41375 -2.9725,-6.12625 -4.60375,-10.005 -3.1175,-7.35875 -6.67,-15.47875 -7.06875,-16.385 -0.5075,-1.19625 -0.68875,-1.48625 -0.87,-1.48625 -0.2175,0 -0.39875,0.435 -0.83375,1.48625 l -7.1775,17.79875 c -1.45,3.51625 -2.8275,6.70625 -3.73375,8.6275 0.29,-0.03625 1.19625,-0.10875 1.92125,-0.10875 0.76125,0 1.0875,0 1.45,0.0725 0.435,-1.70375 2.1025,-6.34375 3.22625,-9.4975 0.0362,-0.0725 0.0725,-0.10875 0.18125,-0.10875 l 9.53375,0 z m -8.845,-2.1025 c -0.0725,0 -0.10875,-0.03625 -0.0725,-0.145 l 3.95125,-10.54875 4.2775,10.54875 c 0.0362,0.10875 0,0.145 -0.0725,0.145 l -8.08375,0 z" />
      <path
         id="path3401"
         style="font-style:normal;font-variant:normal;font-weight:normal;font-stretch:normal;font-size:36.25px;line-height:100%;font-family:'Trajan Sans Pro';-inkscape-font-specification:'Trajan Sans Pro';letter-spacing:-0.5px;word-spacing:4px;fill:#ffffff"
         d="m 19.545724,80.037429 c 0,5.40125 -0.145,8.7 -0.2175,10.2225 1.55875,-0.10875 3.00875,0.0725 4.74875,0.25375 1.305,0.10875 2.6825,0.18125 4.205,0.18125 6.3075,0 9.715,-2.42875 11.455,-4.205 2.03,-2.13875 3.80625,-5.54625 3.80625,-10.18625 0,-4.31375 -1.63125,-7.28625 -3.44375,-9.17125 -3.58875,-3.66125 -9.09875,-4.24125 -13.81125,-4.24125 -2.3925,0 -4.45875,0.145 -5.32875,0.145 -0.58,0 -1.3775,-0.03625 -1.74,-0.0725 0.145,0.83375 0.32625,3.625 0.32625,10.40375 l 0,6.67 z m 3.1175,-6.77875 c 0,-3.73375 0,-7.25 0.0725,-7.93875 0,-0.10875 0.03625,-0.18125 0.145,-0.25375 0.54375,-0.145 1.99375,-0.29 3.335,-0.29 4.64,0 8.88125,1.16 11.3825,4.205 1.885,2.32 2.57375,5.11125 2.57375,8.22875 0,4.06 -1.63125,7.21375 -3.6975,8.95375 -2.03,1.74 -4.89375,2.465 -7.86625,2.465 -2.9725,0 -5.1475,-0.435 -5.655,-0.83375 -0.145,-0.10875 -0.18125,-0.5075 -0.2175,-1.2325 -0.03625,-0.97875 -0.0725,-3.95125 -0.0725,-7.79375 l 0,-5.51 z" />
      <path
         id="path3403"
         style="font-style:normal;font-variant:normal;font-weight:normal;font-stretch:normal;font-size:36.25px;line-height:100%;font-family:'Trajan Sans Pro';-inkscape-font-specification:'Trajan Sans Pro';letter-spacing:-0.5px;word-spacing:4px;fill:#ffffff"
         d="m 46.892071,62.963679 c 0.2175,0.90625 0.3625,5.2925 0.3625,10.47625 l 0,5.69125 c 0,5.22 1.26875,7.57625 3.08125,9.28 1.9575,1.8125 4.96625,2.42875 7.4675,2.42875 2.3925,0 5.18375,-0.3625 7.35875,-2.28375 3.045,-2.6825 3.44375,-6.67 3.44375,-10.91125 l 0,-4.205 c 0,-5.1475 0.18125,-9.38875 0.32625,-10.5125 -0.18125,0.03625 -0.97875,0.10875 -1.74,0.10875 -0.3625,0 -1.05125,0 -1.45,-0.0725 0.18125,1.305 0.39875,5.2925 0.39875,10.47625 l 0,4.2775 c 0,4.16875 -0.435,6.815 -2.28375,8.7725 -1.3775,1.5225 -3.625,1.9575 -5.25625,1.9575 -1.70375,0 -3.95125,-0.25375 -5.655,-1.885 -1.5225,-1.41375 -2.57375,-3.29875 -2.57375,-8.08375 l 0,-5.03875 c 0,-5.1475 0.145,-9.38875 0.29,-10.5125 -0.435,0.0725 -1.26875,0.10875 -2.28375,0.10875 -0.54375,0 -1.16,0 -1.48625,-0.0725 z" />
      <path
         id="path3405"
         style="font-style:normal;font-variant:normal;font-weight:normal;font-stretch:normal;font-size:36.25px;line-height:100%;font-family:'Trajan Sans Pro';-inkscape-font-specification:'Trajan Sans Pro';letter-spacing:-0.5px;word-spacing:4px;fill:#ffffff"
         d="m 73.107852,79.819929 c 0,4.7125 -0.145,9.28 -0.3625,10.5125 0.39875,-0.0725 1.48625,-0.10875 2.13875,-0.10875 0.61625,0 1.26875,0 1.595,0.0725 -0.18125,-1.595 -0.32625,-5.51 -0.32625,-10.0775 l 0,-1.12375 c 0,-0.145 0,-0.2175 0.10875,-0.2175 1.595,0.03625 4.205,0.0725 4.96625,0.03625 0.18125,0 0.32625,0.0725 0.47125,0.25375 1.6675,2.2475 5.03875,7.25 7.0325,9.24375 1.48625,1.55875 2.35625,2.03 3.9875,2.03 0.87,0 1.885,-0.03625 2.35625,-0.2175 -0.68875,-0.29 -1.8125,-1.2325 -3.335,-2.93625 -2.50125,-2.6825 -5.1475,-6.34375 -7.4675,-9.425 2.93625,-2.03 4.4225,-4.5675 4.4225,-7.72125 0,-2.61 -1.34125,-4.74875 -3.22625,-5.945 -1.55875,-0.97875 -3.87875,-1.305 -6.34375,-1.305 -1.26875,0 -4.06,0.145 -4.785,0.145 -0.54375,0 -1.015,0 -1.6675,-0.0725 0.3625,1.19625 0.435,5.2925 0.435,10.47625 l 0,6.38 z m 3.045,-14.60875 c 0,-0.145 0,-0.2175 0.145,-0.25375 0.5075,-0.10875 1.5225,-0.145 2.64625,-0.145 4.16875,0 6.63375,2.35625 6.63375,6.19875 0,2.61 -1.305,4.495 -2.755,5.54625 -0.47125,0.32625 -1.05125,0.435 -2.1025,0.435 -1.92125,0 -3.73375,-0.10875 -4.45875,-0.25375 -0.0725,-0.03625 -0.10875,-0.10875 -0.10875,-0.32625 l 0,-11.20125 z" />
      <path
         id="path3407"
         style="font-style:normal;font-variant:normal;font-weight:normal;font-stretch:normal;font-size:36.25px;line-height:100%;font-family:'Trajan Sans Pro';-inkscape-font-specification:'Trajan Sans Pro';letter-spacing:-0.5px;word-spacing:4px;fill:#ffffff"
         d="m 113.29879,80.689929 c 0.10875,0 0.10875,0.03625 0.145,0.10875 1.2325,2.93625 3.22625,7.86625 3.80625,9.53375 0.435,-0.0725 1.45,-0.10875 2.35625,-0.10875 0.39875,0 1.015,0.03625 1.6675,0.0725 -0.9425,-1.41375 -2.9725,-6.12625 -4.60375,-10.005 -3.1175,-7.35875 -6.67,-15.47875 -7.06875,-16.385 -0.5075,-1.19625 -0.68875,-1.48625 -0.87,-1.48625 -0.2175,0 -0.39875,0.435 -0.83375,1.48625 l -7.1775,17.79875 c -1.45,3.51625 -2.8275,6.70625 -3.73375,8.6275 0.29,-0.03625 1.19625,-0.10875 1.92125,-0.10875 0.76125,0 1.0875,0 1.45,0.0725 0.435,-1.70375 2.1025,-6.34375 3.22625,-9.4975 0.0363,-0.0725 0.0725,-0.10875 0.18125,-0.10875 l 9.53375,0 z m -8.845,-2.1025 c -0.0725,0 -0.10875,-0.03625 -0.0725,-0.145 l 3.95125,-10.54875 4.2775,10.54875 c 0.0362,0.10875 0,0.145 -0.0725,0.145 l -8.08375,0 z" />
      <path
         id="path3409"
         style="font-style:normal;font-variant:normal;font-weight:normal;font-stretch:normal;font-size:36.25px;line-height:100%;font-family:'Trajan Sans Pro';-inkscape-font-specification:'Trajan Sans Pro';letter-spacing:-0.5px;word-spacing:4px;fill:#ffffff"
         d="m 126.97832,90.296179 c -0.29,-2.86375 -0.39875,-13.95625 -0.47125,-21.75 4.02375,4.2775 14.2825,16.56625 17.255,19.575 1.99375,2.06625 2.64625,2.71875 2.9,2.71875 0.2175,0 0.29,-0.29 0.29,-3.4075 0,-1.63125 -0.0362,-3.29875 -0.0362,-6.38 0,-7.35875 0.2175,-15.95 0.39875,-18.125 -0.25375,0.03625 -1.16,0.10875 -1.8125,0.10875 -0.47125,0 -1.0875,0 -1.41375,-0.0725 0.29,3.8425 0.3625,15.5875 0.435,21.46 -2.86375,-2.64625 -15.55125,-17.4 -18.995,-20.98875 -0.725,-0.725 -1.015,-1.015 -1.16,-1.015 -0.2175,0 -0.29,0.18125 -0.29,2.13875 0,6.48875 -0.10875,22.765 -0.39875,25.77375 0.25375,-0.03625 1.41375,-0.10875 1.77625,-0.10875 0.5075,0 1.015,0 1.5225,0.0725 z" />
      <path
         id="path3411"
         style="font-style:normal;font-variant:normal;font-weight:normal;font-stretch:normal;font-size:36.25px;line-height:100%;font-family:'Trajan Sans Pro';-inkscape-font-specification:'Trajan Sans Pro';letter-spacing:-0.5px;word-spacing:4px;fill:#ffffff"
         d="m 177.01609,90.839929 c 4.82125,0 7.6125,-2.71875 8.59125,-3.5525 2.13875,1.74 4.38625,3.37125 6.34375,3.335 1.74,0 2.79125,-0.39875 3.1175,-0.76125 -1.48625,-0.39875 -4.09625,-2.03 -7.395,-4.8575 2.06625,-2.465 4.02375,-7.0325 4.64,-10.0775 -0.725,-0.0725 -2.32,-0.3625 -3.00875,-0.61625 -0.29,2.42875 -1.48625,6.48875 -3.335,9.24375 -1.015,-0.83375 -3.4075,-3.1175 -6.09,-5.98125 -4.38625,-4.7125 -5.47375,-6.56125 -5.47375,-8.80875 0,-2.71875 1.9575,-4.2775 4.38625,-4.2775 2.465,0 4.06,1.0875 4.96625,2.13875 0.0362,-0.6525 0.25375,-2.21125 0.435,-2.93625 -1.015,-0.6525 -2.6825,-1.26875 -5.18375,-1.26875 -5.18375,0 -7.54,3.19 -7.54,6.525 0,1.77625 0.54375,3.15375 1.55875,4.74875 -3.19,2.2475 -5.51,4.93 -5.51,8.44625 0.0363,4.16875 3.15375,8.7 9.4975,8.7 z m 0.725,-2.5375 c -4.09625,0 -7.105,-2.79125 -7.14125,-6.815 0,-2.50125 1.34125,-4.5675 3.5525,-6.1625 2.64625,3.44375 6.09,7.06875 9.7875,10.47625 -1.41375,1.3775 -3.44375,2.50125 -6.19875,2.50125 z" />
      <path
         id="path3413"
         style="font-style:normal;font-variant:normal;font-weight:normal;font-stretch:normal;font-size:36.25px;line-height:100%;font-family:'Trajan Sans Pro';-inkscape-font-specification:'Trajan Sans Pro';letter-spacing:-0.5px;word-spacing:4px;fill:#ffffff"
         d="m 227.7194,87.432429 c 2.28375,2.465 3.625,2.9725 5.83625,2.9725 0.6525,0 1.84875,-0.10875 2.1025,-0.29 -0.6525,-0.2175 -1.885,-0.87 -5.365,-4.2775 -2.13875,-2.13875 -7.43125,-7.6125 -9.67875,-10.25875 0.76125,-0.87 7.21375,-7.3225 8.30125,-8.4825 2.9,-2.8275 4.205,-3.73375 4.74875,-4.16875 -0.58,0.03625 -1.70375,0.10875 -3.00875,0.10875 -0.54375,0 -0.90625,-0.03625 -1.26875,-0.0725 -0.18125,0.39875 -1.5225,2.1025 -3.77,4.53125 -2.8275,3.22625 -6.5975,7.0325 -8.12,8.37375 -0.0725,0.0725 -0.0725,0.2175 -0.0363,0.29 3.19,3.5525 6.70625,7.72125 10.25875,11.27375 z m -13.8475,-7.6125 c 0,4.7125 -0.10875,9.28 -0.25375,10.5125 0.3625,-0.0725 1.55875,-0.10875 2.28375,-0.10875 0.5075,0 1.0875,0.03625 1.41375,0.0725 -0.2175,-1.05125 -0.32625,-5.8725 -0.32625,-10.47625 l 0,-6.38 c 0,-5.1475 0.145,-9.17125 0.25375,-10.5125 -0.39875,0.0725 -1.2325,0.10875 -2.175,0.10875 -0.435,0 -1.19625,0 -1.5225,-0.0725 0.25375,0.9425 0.32625,5.2925 0.32625,10.44 l 0,6.41625 z" />
      <path
         id="path3415"
         style="font-style:normal;font-variant:normal;font-weight:normal;font-stretch:normal;font-size:36.25px;line-height:100%;font-family:'Trajan Sans Pro';-inkscape-font-specification:'Trajan Sans Pro';letter-spacing:-0.5px;word-spacing:4px;fill:#ffffff"
         d="m 239.28498,79.819929 c 0,4.7125 -0.10875,9.28 -0.25375,10.5125 0.32625,-0.03625 1.3775,-0.10875 2.1025,-0.10875 0.58,0 1.26875,0.03625 1.595,0.0725 -0.2175,-1.05125 -0.32625,-5.8725 -0.32625,-10.47625 l 0,-6.38 c 0,-5.1475 0.145,-9.17125 0.25375,-10.5125 -0.25375,0.03625 -1.16,0.10875 -2.175,0.10875 -0.435,0 -1.19625,0 -1.5225,-0.03625 0.25375,0.90625 0.32625,5.25625 0.32625,10.40375 l 0,6.41625 z" />
      <path
         id="path3417"
         style="font-style:normal;font-variant:normal;font-weight:normal;font-stretch:normal;font-size:36.25px;line-height:100%;font-family:'Trajan Sans Pro';-inkscape-font-specification:'Trajan Sans Pro';letter-spacing:-0.5px;word-spacing:4px;fill:#ffffff"
         d="m 251.74248,90.296179 c -0.29,-2.86375 -0.39875,-13.95625 -0.47125,-21.75 4.02375,4.2775 14.2825,16.56625 17.255,19.575 1.99375,2.06625 2.64625,2.71875 2.9,2.71875 0.2175,0 0.29,-0.29 0.29,-3.4075 0,-1.63125 -0.0362,-3.29875 -0.0362,-6.38 0,-7.35875 0.2175,-15.95 0.39875,-18.125 -0.25375,0.03625 -1.16,0.10875 -1.8125,0.10875 -0.47125,0 -1.0875,0 -1.41375,-0.0725 0.29,3.8425 0.3625,15.5875 0.435,21.46 -2.86375,-2.64625 -15.55125,-17.4 -18.995,-20.98875 -0.725,-0.725 -1.015,-1.015 -1.16,-1.015 -0.2175,0 -0.29,0.18125 -0.29,2.13875 0,6.48875 -0.10875,22.765 -0.39875,25.77375 0.25375,-0.03625 1.41375,-0.10875 1.77625,-0.10875 0.5075,0 1.015,0 1.5225,0.0725 z" />
      <path
         id="path3419"
         style="font-style:normal;font-variant:normal;font-weight:normal;font-stretch:normal;font-size:36.25px;line-height:100%;font-family:'Trajan Sans Pro';-inkscape-font-specification:'Trajan Sans Pro';letter-spacing:-0.5px;word-spacing:4px;fill:#ffffff"
         d="m 300.5443,82.864929 c 0,-2.42875 0.10875,-5.25625 0.2175,-6.1625 -0.435,0.0725 -1.015,0.10875 -2.03,0.10875 -0.54375,0 -1.2325,0 -1.74,-0.03625 0.2175,0.7975 0.435,3.335 0.435,5.25625 l 0,4.5675 c 0,0.7975 -0.0362,1.05125 -0.145,1.12375 -1.015,0.58 -3.19,0.87 -4.89375,0.87 -2.5375,0 -6.56125,-0.76125 -9.46125,-3.87875 -1.8125,-1.8125 -3.335,-4.82125 -3.335,-8.99 0,-3.77 1.55875,-6.77875 3.5525,-8.51875 2.13875,-1.885 4.96625,-2.64625 7.79375,-2.64625 5.69125,0 8.7725,1.99375 9.60625,2.9725 0,-1.26875 0.25375,-3.00875 0.39875,-3.5525 -0.87,-0.18125 -4.45875,-1.55875 -8.88125,-1.55875 -2.465,0 -6.67,0.10875 -10.40375,2.755 -2.6825,1.8125 -5.61875,5.365 -5.61875,11.27375 0,4.205 1.595,7.57625 3.625,9.75125 2.86375,3.15375 7.28625,4.64 11.85375,4.64 3.1175,0 6.67,-0.5075 9.0625,-1.595 -0.0362,-0.3625 -0.0362,-0.97875 -0.0362,-2.57375 l 0,-3.80625 z" />
    </g>
  </g>
</svg>
