<?xml version="1.0" encoding="UTF-8" standalone="no"?>
<svg
   xmlns:dc="http://purl.org/dc/elements/1.1/"
   xmlns:cc="http://creativecommons.org/ns#"
   xmlns:rdf="http://www.w3.org/1999/02/22-rdf-syntax-ns#"
   xmlns:svg="http://www.w3.org/2000/svg"
   xmlns="http://www.w3.org/2000/svg"
   version="1.1"
   id="svg2"
   viewBox="0 0 320 132"
   height="132"
   width="320">
  <defs
     id="defs4" />
  <metadata
     id="metadata7">
    <rdf:RDF>
      <cc:Work
         rdf:about="">
        <dc:format>image/svg+xml</dc:format>
        <dc:type
           rdf:resource="http://purl.org/dc/dcmitype/StillImage" />
        <dc:title></dc:title>
      </cc:Work>
    </rdf:RDF>
  </metadata>
  <g
     transform="translate(0,-920.36216)"
     id="layer1">
    <path
       id="rect4136"
       d="m 5,935.86218 310,0 0,86.00002 -310,0 z"
       style="fill:#800000;stroke:#800000;stroke-width:2;stroke-linejoin:round;stroke-miterlimit:4;stroke-dasharray:none" />
    <g
       id="text4185"
       style="font-style:normal;font-variant:normal;font-weight:normal;font-stretch:normal;font-size:13.75px;line-height:125%;font-family:'Trajan Sans Pro';-inkscape-font-specification:'Trajan Sans Pro';letter-spacing:0px;word-spacing:0px;fill:#000000;fill-opacity:1;stroke:none;stroke-width:1px;stroke-linecap:butt;stroke-linejoin:miter;stroke-opacity:1">
      <path
         id="path4162"
         style=""
         d="m 14.92125,1036.2459 c 0.04125,0 0.04125,0.014 0.055,0.041 0.4675,1.1137 1.22375,2.9837 1.44375,3.6162 0.165,-0.027 0.55,-0.041 0.89375,-0.041 0.15125,0 0.385,0.014 0.6325,0.027 -0.3575,-0.5363 -1.1275,-2.3238 -1.74625,-3.795 -1.1825,-2.7913 -2.53,-5.8713 -2.68125,-6.215 -0.1925,-0.4538 -0.26125,-0.5638 -0.33,-0.5638 -0.0825,0 -0.15125,0.165 -0.31625,0.5638 l -2.7225,6.7512 c -0.55,1.3338 -1.0725,2.5438 -1.41625,3.2725 0.11,-0.014 0.45375,-0.041 0.72875,-0.041 0.28875,0 0.4125,0 0.55,0.027 0.165,-0.6463 0.7975,-2.4063 1.22375,-3.6025 0.01375,-0.027 0.0275,-0.041 0.06875,-0.041 l 3.61625,0 z m -3.355,-0.7975 c -0.0275,0 -0.04125,-0.014 -0.0275,-0.055 l 1.49875,-4.0012 1.6225,4.0012 c 0.01375,0.041 0,0.055 -0.0275,0.055 l -3.06625,0 z" />
      <path
         id="path4164"
         style=""
         d="m 23.840918,1035.9159 c 0,1.7875 -0.055,3.4513 -0.11,3.9875 0.12375,-0.027 0.50875,-0.041 0.7425,-0.041 0.20625,0 0.48125,0 0.64625,0.027 -0.055,-0.5913 -0.11,-2.2413 -0.11,-3.9325 l 0,-5.4313 c 0,-0.2337 0,-0.2612 0.06875,-0.275 0.09625,-0.041 0.53625,-0.069 0.83875,-0.069 0.64625,0 1.25125,0.1375 1.63625,0.4125 0.64625,0.3712 1.0175,1.045 1.0175,1.9525 0,1.5812 -1.1825,2.2 -2.48875,2.255 0.055,0.1375 0.15125,0.5087 0.1925,0.66 1.96625,0.014 3.4925,-1.1825 3.4925,-3.1213 0,-0.9075 -0.42625,-1.6087 -0.77,-1.9387 -0.5775,-0.5225 -1.27875,-0.8938 -2.915,-0.8938 -0.77,0 -1.49875,0.041 -1.8425,0.041 -0.1925,0 -0.385,0 -0.53625,-0.014 0.0825,0.4813 0.1375,1.9938 0.1375,3.96 l 0,2.42 z" />
      <path
         id="path4166"
         style=""
         d="m 31.972969,1036.5072 c 0,1.5125 -0.055,2.97 -0.11,3.3962 0.1375,-0.027 0.53625,-0.041 0.77,-0.041 0.22,0 0.45375,0 0.56375,0.027 -0.055,-0.5225 -0.11,-1.7738 -0.11,-3.2313 l 0,-0.3712 c 0,-0.041 0.01375,-0.041 0.055,-0.041 l 1.58125,0 c 0.0825,0 0.11,0.028 0.165,0.083 0.53625,0.7013 1.65,2.3375 2.32375,2.9838 0.48125,0.495 0.77,0.6325 1.375,0.6325 0.28875,0 0.67375,-0.027 0.825,-0.096 -0.20625,-0.096 -0.605,-0.3987 -1.11375,-0.9487 -0.825,-0.88 -1.69125,-2.035 -2.46125,-3.025 0.9625,-0.6463 1.47125,-1.4713 1.47125,-2.475 0,-0.8663 -0.45375,-1.5538 -1.0725,-1.925 -0.5225,-0.3163 -1.30625,-0.4263 -2.1725,-0.4263 -0.44,0 -1.4025,0.055 -1.63625,0.055 -0.20625,0 -0.37125,0 -0.605,-0.027 0.12375,0.3988 0.15125,1.705 0.15125,3.3688 l 0,2.0625 z m 1.11375,-4.6475 c 0,-0.055 0,-0.069 0.04125,-0.082 0.165,-0.041 0.50875,-0.055 0.88,-0.055 1.33375,0 2.15875,0.7425 2.15875,1.98 0,0.8112 -0.4125,1.4025 -0.89375,1.7325 -0.1375,0.096 -0.33,0.1375 -0.6875,0.1375 -0.6325,0 -1.22375,-0.041 -1.4575,-0.096 -0.0275,0 -0.04125,-0.014 -0.04125,-0.082 l 0,-3.5337 z" />
      <path
         id="path4168"
         style=""
         d="m 44.411563,1040.0547 c 2.956249,0 4.743749,-2.0763 4.743749,-4.7988 0,-2.4337 -1.80125,-4.3587 -4.60625,-4.3587 -3.107499,0 -4.771249,2.2275 -4.771249,4.6612 0,2.1038 1.443749,4.51 4.63375,4.4963 z m 0.206249,-0.715 c -2.1175,0 -3.5475,-1.6775 -3.56125,-4.0563 -0.01375,-2.1725 1.265,-3.6712 3.28625,-3.6712 2.0075,0 3.53375,1.5812 3.53375,3.9462 0,2.8325 -1.82875,3.7813 -3.25875,3.7813 z" />
      <path
         id="path4170"
         style=""
         d="m 51.603672,1036.5072 c 0,1.65 -0.055,3.025 -0.09625,3.3962 0.12375,-0.014 0.5225,-0.041 0.75625,-0.041 0.33,0 0.48125,0.014 0.59125,0.027 -0.055,-0.385 -0.11,-2.5163 -0.11,-3.3963 l 0,-0.7287 c 0,-0.041 0.01375,-0.055 0.0275,-0.055 1.1275,0 1.7325,0.014 2.10375,0.041 0.45375,0.027 0.6875,0.082 0.83875,0.165 0.01375,-0.3025 0.055,-0.88 0.09625,-1.0312 -0.12375,0.027 -0.3575,0.096 -1.03125,0.096 l -1.99375,0 c -0.0275,0 -0.04125,0 -0.04125,-0.055 0,-0.9762 0.01375,-2.0212 0.0275,-2.9975 0,-0.041 0,-0.096 0.04125,-0.096 0.97625,0 1.85625,0.014 2.24125,0.041 0.6325,0.041 0.7975,0.096 0.9625,0.165 0.01375,-0.22 0.04125,-0.6737 0.09625,-1.0037 -0.20625,0.041 -0.66,0.069 -0.97625,0.069 l -2.86,0 c -0.275,0 -0.5775,-0.014 -0.7975,-0.027 0.06875,0.3438 0.12375,1.4713 0.12375,3.3688 l 0,2.0625 z" />
      <path
         id="path4172"
         style=""
         d="m 58.223867,1036.5072 c 0,1.65 -0.06875,2.97 -0.11,3.3825 0.15125,-0.014 0.45375,-0.027 0.825,-0.027 0.50875,0 1.43,0.069 3.09375,0.069 0.45375,0 0.59125,-0.014 0.6325,-0.028 0.04125,-0.2475 0.15125,-0.7012 0.2475,-0.9625 -0.3575,0.1513 -0.9075,0.2338 -2.02125,0.2338 -0.5225,0 -0.9075,-0.027 -1.19625,-0.055 -0.11,-0.014 -0.22,-0.041 -0.26125,-0.069 -0.055,-0.055 -0.0825,-0.3712 -0.0825,-2.64 l 0,-0.7837 c 0,-0.027 0.01375,-0.055 0.04125,-0.055 0.23375,0 1.6225,0.014 2.035,0.041 0.4675,0.041 0.67375,0.096 0.83875,0.1788 0,-0.2475 0.04125,-0.77 0.11,-1.045 -0.1375,0.041 -0.4125,0.069 -1.05875,0.096 -0.3575,0.014 -1.74625,0.014 -1.925,0.014 -0.0275,0 -0.04125,-0.027 -0.04125,-0.069 l 0,-2.915 c 0,-0.041 0.0275,-0.041 0.04125,-0.041 0.99,0 1.705,0.027 2.09,0.041 0.59125,0.055 0.83875,0.11 1.00375,0.2063 0,-0.4125 0.055,-0.8388 0.0825,-1.045 -0.22,0.055 -0.715,0.069 -0.97625,0.069 l -2.7225,0 c -0.275,0 -0.61875,0 -0.78375,-0.027 0.0825,0.33 0.1375,1.4713 0.1375,3.3688 l 0,2.0625 z" />
      <path
         id="path4174"
         style=""
         d="m 64.454766,1039.5734 c 0.4125,0.275 1.22375,0.4813 2.0075,0.4813 0.605,0 1.33375,-0.1238 1.88375,-0.4813 0.83875,-0.5775 1.1,-1.4987 1.1,-2.0212 0,-0.9075 -0.28875,-1.6088 -1.74625,-2.53 l -0.59125,-0.3713 c -1.0725,-0.7012 -1.22375,-1.1275 -1.22375,-1.7325 0,-0.77 0.605,-1.2787 1.49875,-1.2787 0.9625,0 1.55375,0.3987 1.77375,0.6737 0,-0.44 0.06875,-1.0862 0.11,-1.21 -0.09625,-0.014 -0.3025,-0.041 -0.6325,-0.096 -0.275,-0.055 -0.715,-0.11 -1.1825,-0.11 -1.69125,0 -2.6675,1.0312 -2.6675,2.2687 0,0.825 0.33,1.595 1.60875,2.42 l 0.605,0.385 c 1.03125,0.66 1.27875,1.1138 1.27875,1.815 0,0.825 -0.56375,1.4988 -1.6775,1.4988 -0.935,0 -1.69125,-0.495 -2.04875,-0.9488 0.01375,0.3575 -0.055,1.0588 -0.09625,1.2375 z" />
      <path
         id="path4176"
         style=""
         d="m 71.0075,1039.5734 c 0.4125,0.275 1.22375,0.4813 2.0075,0.4813 0.605,0 1.33375,-0.1238 1.88375,-0.4813 0.83875,-0.5775 1.1,-1.4987 1.1,-2.0212 0,-0.9075 -0.28875,-1.6088 -1.74625,-2.53 l -0.59125,-0.3713 c -1.0725,-0.7012 -1.22375,-1.1275 -1.22375,-1.7325 0,-0.77 0.605,-1.2787 1.49875,-1.2787 0.9625,0 1.55375,0.3987 1.77375,0.6737 0,-0.44 0.06875,-1.0862 0.11,-1.21 -0.09625,-0.014 -0.3025,-0.041 -0.6325,-0.096 -0.275,-0.055 -0.715,-0.11 -1.1825,-0.11 -1.69125,0 -2.6675,1.0312 -2.6675,2.2687 0,0.825 0.33,1.595 1.60875,2.42 l 0.605,0.385 c 1.03125,0.66 1.27875,1.1138 1.27875,1.815 0,0.825 -0.56375,1.4988 -1.6775,1.4988 -0.935,0 -1.69125,-0.495 -2.04875,-0.9488 0.01375,0.3575 -0.055,1.0588 -0.09625,1.2375 z" />
      <path
         id="path4178"
         style=""
         d="m 78.324863,1036.5072 c 0,1.5125 -0.04125,2.9837 -0.09625,3.3962 0.12375,-0.014 0.495,-0.041 0.77,-0.041 0.20625,0 0.4675,0.014 0.5775,0.027 -0.0825,-0.3438 -0.11,-1.9113 -0.11,-3.3825 l 0,-2.0625 c 0,-1.65 0.055,-2.9563 0.0825,-3.3825 -0.09625,0.014 -0.39875,0.041 -0.78375,0.041 -0.17875,0 -0.44,0 -0.56375,-0.014 0.0825,0.3025 0.12375,1.6912 0.12375,3.355 l 0,2.0625 z" />
      <path
         id="path4180"
         style=""
         d="m 86.520938,1040.0547 c 2.956249,0 4.743749,-2.0763 4.743749,-4.7988 0,-2.4337 -1.80125,-4.3587 -4.606249,-4.3587 -3.1075,0 -4.771251,2.2275 -4.771251,4.6612 0,2.1038 1.443751,4.51 4.633751,4.4963 z m 0.206249,-0.715 c -2.117499,0 -3.5475,-1.6775 -3.56125,-4.0563 -0.01375,-2.1725 1.265,-3.6712 3.28625,-3.6712 2.0075,0 3.533751,1.5812 3.533751,3.9462 0,2.8325 -1.82875,3.7813 -3.258751,3.7813 z" />
      <path
         id="path4182"
         style=""
         d="m 94.838613,1039.8897 c -0.11,-0.9213 -0.1375,-4.345 -0.15125,-6.8338 1.155,1.2238 4.62,5.1563 5.664997,6.1325 0.77,0.7425 0.935,0.88 1.0175,0.88 0.0687,0 0.0962,-0.069 0.0962,-0.6875 0,-0.495 -0.0138,-1.6362 -0.0138,-2.3925 0.0138,-2.2275 0.0825,-5.225 0.15125,-5.9262 -0.0825,0.014 -0.4125,0.041 -0.67375,0.041 -0.165,0 -0.39875,-0.014 -0.495,-0.027 0.0962,1.2788 0.1375,4.9775 0.15125,6.7375 -1.099997,-0.8937 -5.114997,-5.4175 -6.297497,-6.5862 -0.2475,-0.2338 -0.34375,-0.33 -0.39875,-0.33 -0.0825,0 -0.11,0.055 -0.11,0.6875 0,2.0762 -0.04125,7.3287 -0.12375,8.3187 0.06875,-0.014 0.50875,-0.041 0.6325,-0.041 0.17875,0 0.37125,0 0.55,0.027 z" />
      <path
         id="path4184"
         style=""
         d="m 108.79057,1036.9059 c 0.0412,0 0.0412,0 0.055,0.027 0.385,0.9213 1.0175,2.4338 1.21,2.97 0.165,-0.027 0.55,-0.041 0.86625,-0.041 0.1375,0 0.37125,0.014 0.605,0.027 -0.31625,-0.4675 -0.99,-1.9663 -1.55375,-3.2175 -1.08625,-2.365 -2.2825,-4.9913 -2.42,-5.28 -0.17875,-0.3988 -0.2475,-0.495 -0.3025,-0.495 -0.0687,0 -0.1375,0.1375 -0.3025,0.495 l -2.365,5.6925 c -0.50875,1.1687 -0.9625,2.2 -1.265,2.8187 0.11,-0.014 0.4125,-0.041 0.70125,-0.041 0.275,0 0.385,0 0.5225,0.027 0.1375,-0.55 0.67375,-1.9525 1.045,-2.9563 0,-0.027 0.0275,-0.027 0.055,-0.027 l 3.14875,0 z m -2.8875,-0.7425 c -0.0413,0 -0.0413,-0.014 -0.0275,-0.041 l 1.265,-3.2863 1.4025,3.2863 c 0,0.027 0,0.041 -0.0413,0.041 l -2.59875,0 z" />
      <path
         id="path4186"
         style=""
         d="m 113.31754,1036.5072 c 0,1.65 -0.055,2.97 -0.0825,3.3825 0.1375,-0.027 0.3575,-0.027 0.67375,-0.027 0.61875,0 1.44375,0.069 3.2175,0.069 0.55,0 0.67375,-0.014 0.7425,-0.028 0.055,-0.1925 0.1925,-0.7287 0.28875,-0.9625 -0.28875,0.1375 -0.825,0.2338 -2.13125,0.2338 -0.5225,0 -0.94875,-0.014 -1.1825,-0.041 -0.15125,-0.014 -0.2475,-0.041 -0.28875,-0.069 -0.0688,-0.055 -0.0963,-0.2475 -0.0963,-2.6538 l 0,-1.9937 c 0,-1.6363 0.0688,-2.915 0.11,-3.355 -0.1375,0.027 -0.495,0.041 -0.7975,0.041 -0.1925,0 -0.4675,0 -0.5775,-0.027 0.0825,0.3438 0.12375,1.705 0.12375,3.3688 l 0,2.0625 z" />
      <path
         id="path4188"
         style=""
         d="m 124.10678,1035.9159 c 0,1.9388 -0.055,3.4925 -0.0962,3.9738 0.165,-0.027 0.37125,-0.027 0.6875,-0.027 0.66,0 1.63625,0.082 3.64375,0.082 0.61875,0 0.75625,-0.014 0.825,-0.027 0.055,-0.2063 0.1925,-0.8113 0.31625,-1.0588 -0.33,0.1513 -0.88,0.275 -2.42,0.275 -0.59125,0 -1.0725,-0.014 -1.3475,-0.041 -0.1375,-0.014 -0.26125,-0.041 -0.33,-0.096 -0.0688,-0.055 -0.0962,-0.3987 -0.0962,-3.1762 l 0,-2.365 c 0,-1.925 0.055,-3.4375 0.11,-3.9463 -0.12375,0.028 -0.5225,0.041 -0.825,0.041 -0.165,0 -0.495,0 -0.605,-0.027 0.0825,0.3987 0.1375,2.0075 0.1375,3.9737 l 0,2.42 z" />
      <path
         id="path4190"
         style=""
         d="m 131.36441,1036.5072 c 0,1.5125 -0.0412,2.9837 -0.0962,3.3962 0.12375,-0.014 0.495,-0.041 0.77,-0.041 0.20625,0 0.4675,0.014 0.5775,0.027 -0.0825,-0.3438 -0.11,-1.9113 -0.11,-3.3825 l 0,-2.0625 c 0,-1.65 0.055,-2.9563 0.0825,-3.3825 -0.0962,0.014 -0.39875,0.041 -0.78375,0.041 -0.17875,0 -0.44,0 -0.56375,-0.014 0.0825,0.3025 0.12375,1.6912 0.12375,3.355 l 0,2.0625 z" />
      <path
         id="path4192"
         style=""
         d="m 135.42109,1039.9034 c 0.12375,-0.027 0.385,-0.041 0.70125,-0.041 0.12375,0 0.3575,0 0.495,0.027 0,-0.77 0.28875,-4.4413 0.42625,-6.5038 0.935,1.9663 2.0625,4.0563 3.19,6.435 0.0962,0.165 0.1375,0.1788 0.2475,-0.027 0.97625,-1.98 2.2,-4.4 3.2725,-6.435 0.12375,1.98 0.4125,5.8163 0.4125,6.545 0.165,-0.027 0.45375,-0.041 0.78375,-0.041 0.28875,0 0.4675,0 0.5775,0.027 -0.17875,-0.6875 -0.5225,-4.0975 -0.78375,-6.8475 -0.0688,-0.6188 -0.1375,-1.2925 -0.1925,-1.8563 -0.0275,-0.2475 -0.055,-0.2887 -0.11,-0.2887 -0.055,0 -0.11,0.069 -0.23375,0.2612 -0.385,0.7838 -0.715,1.3888 -1.38875,2.5025 l -2.31,4.3725 -2.6675,-4.9775 c -0.33,-0.5775 -0.9625,-1.7737 -1.1,-1.98 -0.0825,-0.1375 -0.0963,-0.1787 -0.165,-0.1787 -0.0412,0 -0.0687,0.041 -0.0962,0.1925 -0.0687,0.605 -0.12375,1.1687 -0.1925,1.8425 -0.28875,2.7362 -0.72875,6.325 -0.86625,6.9712 z" />
      <path
         id="path4194"
         style=""
         d="m 148.2565,1036.5072 c 0,1.5125 -0.0412,2.9837 -0.0962,3.3962 0.12375,-0.014 0.495,-0.041 0.77,-0.041 0.20625,0 0.4675,0.014 0.5775,0.027 -0.0825,-0.3438 -0.11,-1.9113 -0.11,-3.3825 l 0,-2.0625 c 0,-1.65 0.055,-2.9563 0.0825,-3.3825 -0.0963,0.014 -0.39875,0.041 -0.78375,0.041 -0.17875,0 -0.44,0 -0.56375,-0.014 0.0825,0.3025 0.12375,1.6912 0.12375,3.355 l 0,2.0625 z" />
      <path
         id="path4196"
         style=""
         d="m 151.19814,1032.0522 c 0.34375,-0.11 0.78375,-0.165 1.63625,-0.1925 0.7975,-0.027 1.1,-0.027 1.66375,-0.027 l 0,4.675 c 0,1.5125 -0.0413,2.9837 -0.0962,3.3962 0.15125,-0.027 0.48125,-0.041 0.7975,-0.041 0.1925,0 0.4125,0 0.53625,0.027 -0.0412,-0.44 -0.0962,-1.9663 -0.0962,-3.4375 l 0,-4.62 c 0.88,0 1.4025,0.027 1.91125,0.055 0.78375,0.041 1.1275,0.096 1.32,0.2337 0.0137,-0.33 0.0687,-0.825 0.1375,-1.1137 -0.22,0.055 -1.11375,0.096 -1.82875,0.096 l -3.96,0 c -1.045,0 -1.52625,-0.041 -1.815,-0.11 -0.0275,0.275 -0.1375,0.8525 -0.20625,1.0588 z" />
      <path
         id="path4198"
         style=""
         d="m 160.75805,1036.5072 c 0,1.65 -0.0687,2.97 -0.11,3.3825 0.15125,-0.014 0.45375,-0.027 0.825,-0.027 0.50875,0 1.43,0.069 3.09375,0.069 0.45375,0 0.59125,-0.014 0.6325,-0.028 0.0413,-0.2475 0.15125,-0.7012 0.2475,-0.9625 -0.3575,0.1513 -0.9075,0.2338 -2.02125,0.2338 -0.5225,0 -0.9075,-0.027 -1.19625,-0.055 -0.11,-0.014 -0.22,-0.041 -0.26125,-0.069 -0.055,-0.055 -0.0825,-0.3712 -0.0825,-2.64 l 0,-0.7837 c 0,-0.027 0.0138,-0.055 0.0412,-0.055 0.23375,0 1.6225,0.014 2.035,0.041 0.4675,0.041 0.67375,0.096 0.83875,0.1788 0,-0.2475 0.0413,-0.77 0.11,-1.045 -0.1375,0.041 -0.4125,0.069 -1.05875,0.096 -0.3575,0.014 -1.74625,0.014 -1.925,0.014 -0.0275,0 -0.0412,-0.027 -0.0412,-0.069 l 0,-2.915 c 0,-0.041 0.0275,-0.041 0.0412,-0.041 0.99,0 1.705,0.027 2.09,0.041 0.59125,0.055 0.83875,0.11 1.00375,0.2063 0,-0.4125 0.055,-0.8388 0.0825,-1.045 -0.22,0.055 -0.715,0.069 -0.97625,0.069 l -2.7225,0 c -0.275,0 -0.61875,0 -0.78375,-0.027 0.0825,0.33 0.1375,1.4713 0.1375,3.3688 l 0,2.0625 z" />
      <path
         id="path4200"
         style=""
         d="m 167.64615,1036.5759 c 0,1.7463 -0.055,2.8188 -0.0825,3.3 0.56375,-0.041 1.03125,0.027 1.63625,0.082 0.42625,0.027 0.89375,0.055 1.4025,0.055 2.10375,0 3.23125,-0.7837 3.85,-1.3612 0.67375,-0.6875 1.27875,-1.7875 1.27875,-3.2175 0,-1.4438 -0.55,-2.3925 -1.155,-2.9975 -1.21,-1.1688 -2.92875,-1.3888 -4.55125,-1.3888 -0.825,0 -1.58125,0.055 -1.8975,0.055 -0.20625,0 -0.48125,-0.014 -0.605,-0.027 0.0412,0.2888 0.12375,1.21 0.12375,3.355 l 0,2.145 z m 1.1275,-2.2 c 0,-1.1825 0.0137,-2.255 0.0275,-2.4887 0,-0.041 0.0137,-0.069 0.055,-0.082 0.165,-0.055 0.6325,-0.082 1.08625,-0.082 1.5125,0 2.90125,0.3712 3.7125,1.3337 0.605,0.7425 0.83875,1.6363 0.83875,2.6125 0,1.265 -0.5225,2.2688 -1.1825,2.8325 -0.6875,0.5775 -1.6225,0.7975 -2.59875,0.7975 -0.9625,0 -1.65,-0.1512 -1.8425,-0.275 -0.0412,-0.041 -0.0687,-0.1237 -0.0687,-0.3987 -0.0138,-0.3163 -0.0275,-1.2375 -0.0275,-2.4888 l 0,-1.76 z" />
      <path
         id="path4202"
         style=""
         d="m 182.19516,1035.9159 c 0,1.9388 -0.055,3.4925 -0.0962,3.9738 0.165,-0.027 0.37125,-0.027 0.6875,-0.027 0.66,0 1.63625,0.082 3.64375,0.082 0.61875,0 0.75625,-0.014 0.825,-0.027 0.055,-0.2063 0.1925,-0.8113 0.31625,-1.0588 -0.33,0.1513 -0.88,0.275 -2.42,0.275 -0.59125,0 -1.0725,-0.014 -1.3475,-0.041 -0.1375,-0.014 -0.26125,-0.041 -0.33,-0.096 -0.0687,-0.055 -0.0962,-0.3987 -0.0962,-3.1762 l 0,-2.365 c 0,-1.925 0.055,-3.4375 0.11,-3.9463 -0.12375,0.028 -0.5225,0.041 -0.825,0.041 -0.165,0 -0.495,0 -0.605,-0.027 0.0825,0.3987 0.1375,2.0075 0.1375,3.9737 l 0,2.42 z" />
      <path
         id="path4204"
         style=""
         d="m 189.45279,1036.5072 c 0,1.5125 -0.0412,2.9837 -0.0962,3.3962 0.12375,-0.014 0.495,-0.041 0.77,-0.041 0.20625,0 0.4675,0.014 0.5775,0.027 -0.0825,-0.3438 -0.11,-1.9113 -0.11,-3.3825 l 0,-2.0625 c 0,-1.65 0.055,-2.9563 0.0825,-3.3825 -0.0962,0.014 -0.39875,0.041 -0.78375,0.041 -0.17875,0 -0.44,0 -0.56375,-0.014 0.0825,0.3025 0.12375,1.6912 0.12375,3.355 l 0,2.0625 z" />
      <path
         id="path4206"
         style=""
         d="m 198.00443,1036.9059 c 0.0412,0 0.0412,0 0.055,0.027 0.385,0.9213 1.0175,2.4338 1.21,2.97 0.165,-0.027 0.55,-0.041 0.86625,-0.041 0.1375,0 0.37125,0.014 0.605,0.027 -0.31625,-0.4675 -0.99,-1.9663 -1.55375,-3.2175 -1.08625,-2.365 -2.2825,-4.9913 -2.42,-5.28 -0.17875,-0.3988 -0.2475,-0.495 -0.3025,-0.495 -0.0687,0 -0.1375,0.1375 -0.3025,0.495 l -2.365,5.6925 c -0.50875,1.1687 -0.9625,2.2 -1.265,2.8187 0.11,-0.014 0.4125,-0.041 0.70125,-0.041 0.275,0 0.385,0 0.5225,0.027 0.1375,-0.55 0.67375,-1.9525 1.045,-2.9563 0,-0.027 0.0275,-0.027 0.055,-0.027 l 3.14875,0 z m -2.8875,-0.7425 c -0.0412,0 -0.0412,-0.014 -0.0275,-0.041 l 1.265,-3.2863 1.4025,3.2863 c 0,0.027 0,0.041 -0.0413,0.041 l -2.59875,0 z" />
      <path
         id="path4208"
         style=""
         d="m 203.67266,1031.8597 c 0,-0.027 0.0137,-0.055 0.0412,-0.055 0.0687,-0.041 0.34375,-0.069 0.7425,-0.069 1.19625,0 1.815,0.6325 1.815,1.6088 0,0.495 -0.23375,1.045 -0.70125,1.3475 -0.15125,0.096 -0.26125,0.11 -0.48125,0.11 -0.17875,0 -1.14125,-0.014 -1.36125,-0.028 -0.0412,-0.014 -0.055,-0.027 -0.055,-0.055 l 0,-2.86 z m 3.28625,5.5962 c 0,1.2375 -0.9625,1.8013 -1.9525,1.8013 -0.70125,0 -1.155,-0.1375 -1.27875,-0.2475 -0.0275,-0.041 -0.055,-0.605 -0.055,-2.5025 l 0,-0.9625 c 0,-0.027 0.0137,-0.041 0.0412,-0.055 0.11,-0.014 0.715,-0.014 1.03125,0.014 0.56375,0.027 1.05875,0.1375 1.44375,0.44 0.61875,0.4675 0.77,1.0038 0.77,1.5125 z m -4.4,-0.9487 c 0,1.5125 -0.055,2.9012 -0.0962,3.3825 0.1925,-0.014 0.55,-0.027 0.75625,-0.014 0.275,0.014 0.89375,0.082 1.7325,0.082 2.15875,0 3.20375,-1.2787 3.20375,-2.64 0,-1.32 -0.935,-2.0487 -1.98,-2.3512 0.53625,-0.2888 1.155,-0.8938 1.155,-1.87 0,-0.8663 -0.50875,-2.035 -2.59875,-2.035 -0.75625,0 -1.25125,0.041 -1.7325,0.041 -0.1925,0 -0.42625,-0.014 -0.59125,-0.027 0.0825,0.4263 0.15125,1.705 0.15125,3.3688 l 0,2.0625 z" />
      <path
         id="path4210"
         style=""
         d="m 210.45377,1036.5072 c 0,1.5125 -0.0412,2.9837 -0.0962,3.3962 0.12375,-0.014 0.495,-0.041 0.77,-0.041 0.20625,0 0.4675,0.014 0.5775,0.027 -0.0825,-0.3438 -0.11,-1.9113 -0.11,-3.3825 l 0,-2.0625 c 0,-1.65 0.055,-2.9563 0.0825,-3.3825 -0.0962,0.014 -0.39875,0.041 -0.78375,0.041 -0.17875,0 -0.44,0 -0.56375,-0.014 0.0825,0.3025 0.12375,1.6912 0.12375,3.355 l 0,2.0625 z" />
      <path
         id="path4212"
         style=""
         d="m 215.07291,1036.5072 c 0,1.65 -0.055,2.97 -0.0825,3.3825 0.1375,-0.027 0.3575,-0.027 0.67375,-0.027 0.61875,0 1.44375,0.069 3.2175,0.069 0.55,0 0.67375,-0.014 0.7425,-0.028 0.055,-0.1925 0.1925,-0.7287 0.28875,-0.9625 -0.28875,0.1375 -0.825,0.2338 -2.13125,0.2338 -0.5225,0 -0.94875,-0.014 -1.1825,-0.041 -0.15125,-0.014 -0.2475,-0.041 -0.28875,-0.069 -0.0687,-0.055 -0.0962,-0.2475 -0.0962,-2.6538 l 0,-1.9937 c 0,-1.6363 0.0687,-2.915 0.11,-3.355 -0.1375,0.027 -0.495,0.041 -0.7975,0.041 -0.1925,0 -0.4675,0 -0.5775,-0.027 0.0825,0.3438 0.12375,1.705 0.12375,3.3688 l 0,2.0625 z" />
      <path
         id="path4214"
         style=""
         d="m 221.62564,1036.5072 c 0,1.5125 -0.0412,2.9837 -0.0962,3.3962 0.12375,-0.014 0.495,-0.041 0.77,-0.041 0.20625,0 0.4675,0.014 0.5775,0.027 -0.0825,-0.3438 -0.11,-1.9113 -0.11,-3.3825 l 0,-2.0625 c 0,-1.65 0.055,-2.9563 0.0825,-3.3825 -0.0962,0.014 -0.39875,0.041 -0.78375,0.041 -0.17875,0 -0.44,0 -0.56375,-0.014 0.0825,0.3025 0.12375,1.6912 0.12375,3.355 l 0,2.0625 z" />
      <path
         id="path4216"
         style=""
         d="m 224.56729,1032.0522 c 0.34375,-0.11 0.78375,-0.165 1.63625,-0.1925 0.7975,-0.027 1.1,-0.027 1.66375,-0.027 l 0,4.675 c 0,1.5125 -0.0412,2.9837 -0.0962,3.3962 0.15125,-0.027 0.48125,-0.041 0.7975,-0.041 0.1925,0 0.4125,0 0.53625,0.027 -0.0413,-0.44 -0.0962,-1.9663 -0.0962,-3.4375 l 0,-4.62 c 0.88,0 1.4025,0.027 1.91125,0.055 0.78375,0.041 1.1275,0.096 1.32,0.2337 0.0137,-0.33 0.0687,-0.825 0.1375,-1.1137 -0.22,0.055 -1.11375,0.096 -1.82875,0.096 l -3.96,0 c -1.045,0 -1.52625,-0.041 -1.815,-0.11 -0.0275,0.275 -0.1375,0.8525 -0.20625,1.0588 z" />
      <path
         id="path4218"
         style=""
         d="m 236.68576,1039.9034 c 0.12375,-0.027 0.5775,-0.041 0.77,-0.041 0.23375,0 0.48125,0 0.56375,0.027 -0.0412,-0.495 -0.0962,-1.8288 -0.0962,-3.3 0,-0.2475 0.055,-0.4125 0.15125,-0.6188 0.33,-0.6875 1.65,-2.8187 1.98,-3.355 0.31625,-0.4812 0.83875,-1.2787 1.08625,-1.5537 -0.0825,0.027 -0.4125,0.041 -0.81125,0.041 -0.12375,0 -0.3025,0 -0.42625,-0.027 -0.0962,0.2338 -0.34375,0.7288 -0.495,0.99 -0.3025,0.5363 -1.43,2.5025 -1.91125,3.3 -0.22,-0.3437 -1.6775,-2.7775 -1.88375,-3.1075 -0.22,-0.385 -0.5225,-0.9625 -0.6325,-1.1962 -0.0962,0.027 -0.6325,0.041 -0.9075,0.041 -0.3025,0 -0.495,0 -0.66,-0.027 0.385,0.385 0.78375,1.0038 1.22375,1.6225 0.385,0.605 1.5675,2.4888 1.99375,3.245 0.0825,0.1238 0.165,0.3438 0.165,0.6325 0,1.8425 -0.055,2.915 -0.11,3.3275 z" />
      <path
         id="path4220"
         style=""
         d="m 251.67756,1040.0959 c 1.16875,0 2.35125,-0.2475 2.8875,-0.4812 0.0275,-0.3025 0.12375,-0.8525 0.22,-1.155 -0.67375,0.5087 -1.82875,0.7287 -2.98375,0.7287 -3.5475,0 -4.895,-2.5575 -4.895,-4.7712 0,-1.1688 0.28875,-2.3238 1.19625,-3.2038 0.55,-0.5087 1.41625,-1.1 3.12125,-1.1 1.6775,0 2.915,0.5225 3.45125,1.0863 0.0137,-0.4675 0.11,-1.0313 0.1925,-1.2925 -0.56375,-0.1513 -1.6775,-0.5913 -3.56125,-0.5913 -2.04875,0 -3.3825,0.6738 -4.24875,1.5125 -1.22375,1.21 -1.47125,2.7088 -1.47125,3.7263 0,1.21 0.37125,2.86 1.6775,4.0562 1.11375,0.99 2.54375,1.485 4.41375,1.485 z" />
      <path
         id="path4222"
         style=""
         d="m 260.83979,1040.0547 c 2.95625,0 4.74375,-2.0763 4.74375,-4.7988 0,-2.4337 -1.80125,-4.3587 -4.60625,-4.3587 -3.1075,0 -4.77125,2.2275 -4.77125,4.6612 0,2.1038 1.44375,4.51 4.63375,4.4963 z m 0.20625,-0.715 c -2.1175,0 -3.5475,-1.6775 -3.56125,-4.0563 -0.0137,-2.1725 1.265,-3.6712 3.28625,-3.6712 2.0075,0 3.53375,1.5812 3.53375,3.9462 0,2.8325 -1.82875,3.7813 -3.25875,3.7813 z" />
      <path
         id="path4224"
         style=""
         d="m 267.55,1039.9034 c 0.12375,-0.027 0.385,-0.041 0.70125,-0.041 0.12375,0 0.3575,0 0.495,0.027 0,-0.77 0.28875,-4.4413 0.42625,-6.5038 0.935,1.9663 2.0625,4.0563 3.19,6.435 0.0962,0.165 0.1375,0.1788 0.2475,-0.027 0.97625,-1.98 2.2,-4.4 3.2725,-6.435 0.12375,1.98 0.4125,5.8163 0.4125,6.545 0.165,-0.027 0.45375,-0.041 0.78375,-0.041 0.28875,0 0.4675,0 0.5775,0.027 -0.17875,-0.6875 -0.5225,-4.0975 -0.78375,-6.8475 -0.0688,-0.6188 -0.1375,-1.2925 -0.1925,-1.8563 -0.0275,-0.2475 -0.055,-0.2887 -0.11,-0.2887 -0.055,0 -0.11,0.069 -0.23375,0.2612 -0.385,0.7838 -0.715,1.3888 -1.38875,2.5025 l -2.31,4.3725 -2.6675,-4.9775 c -0.33,-0.5775 -0.9625,-1.7737 -1.1,-1.98 -0.0825,-0.1375 -0.0962,-0.1787 -0.165,-0.1787 -0.0412,0 -0.0687,0.041 -0.0962,0.1925 -0.0687,0.605 -0.12375,1.1687 -0.1925,1.8425 -0.28875,2.7362 -0.72875,6.325 -0.86625,6.9712 z" />
      <path
         id="path4226"
         style=""
         d="m 280.38541,1036.5072 c 0,1.5125 -0.055,2.9287 -0.0962,3.3962 0.11,-0.027 0.4675,-0.041 0.715,-0.041 0.1925,0 0.45375,0 0.61875,0.027 -0.0687,-0.5088 -0.11,-1.9113 -0.11,-3.3413 l 0,-4.565 c 0,-0.2062 0.0138,-0.22 0.055,-0.2337 0.0962,-0.041 0.48125,-0.055 0.72875,-0.055 0.6325,0 1.11375,0.11 1.4575,0.3437 0.5225,0.3163 0.83875,0.88 0.83875,1.6225 0,1.3338 -1.0175,1.8563 -2.15875,1.9113 0.0687,0.1512 0.165,0.4812 0.1925,0.5912 1.74625,0 3.09375,-1.0037 3.09375,-2.6812 0,-0.77 -0.37125,-1.375 -0.67375,-1.65 -0.50875,-0.4538 -1.1825,-0.77 -2.62625,-0.77 -0.715,0 -1.30625,0.041 -1.65,0.041 -0.17875,0 -0.37125,0 -0.50875,-0.014 0.0687,0.4125 0.12375,1.6912 0.12375,3.355 l 0,2.0625 z" />
      <path
         id="path4228"
         style=""
         d="m 291.40775,1036.9059 c 0.0412,0 0.0412,0 0.055,0.027 0.385,0.9213 1.0175,2.4338 1.21,2.97 0.165,-0.027 0.55,-0.041 0.86625,-0.041 0.1375,0 0.37125,0.014 0.605,0.027 -0.31625,-0.4675 -0.99,-1.9663 -1.55375,-3.2175 -1.08625,-2.365 -2.2825,-4.9913 -2.42,-5.28 -0.17875,-0.3988 -0.2475,-0.495 -0.3025,-0.495 -0.0688,0 -0.1375,0.1375 -0.3025,0.495 l -2.365,5.6925 c -0.50875,1.1687 -0.9625,2.2 -1.265,2.8187 0.11,-0.014 0.4125,-0.041 0.70125,-0.041 0.275,0 0.385,0 0.5225,0.027 0.1375,-0.55 0.67375,-1.9525 1.045,-2.9563 0,-0.027 0.0275,-0.027 0.055,-0.027 l 3.14875,0 z m -2.8875,-0.7425 c -0.0412,0 -0.0412,-0.014 -0.0275,-0.041 l 1.265,-3.2863 1.4025,3.2863 c 0,0.027 0,0.041 -0.0412,0.041 l -2.59875,0 z" />
      <path
         id="path4230"
         style=""
         d="m 297.06029,1039.8897 c -0.11,-0.9213 -0.1375,-4.345 -0.15125,-6.8338 1.155,1.2238 4.62,5.1563 5.665,6.1325 0.77,0.7425 0.935,0.88 1.0175,0.88 0.0687,0 0.0962,-0.069 0.0962,-0.6875 0,-0.495 -0.0138,-1.6362 -0.0138,-2.3925 0.0138,-2.2275 0.0825,-5.225 0.15125,-5.9262 -0.0825,0.014 -0.4125,0.041 -0.67375,0.041 -0.165,0 -0.39875,-0.014 -0.495,-0.027 0.0962,1.2788 0.1375,4.9775 0.15125,6.7375 -1.1,-0.8937 -5.115,-5.4175 -6.2975,-6.5862 -0.2475,-0.2338 -0.34375,-0.33 -0.39875,-0.33 -0.0825,0 -0.11,0.055 -0.11,0.6875 0,2.0762 -0.0412,7.3287 -0.12375,8.3187 0.0688,-0.014 0.50875,-0.041 0.6325,-0.041 0.17875,0 0.37125,0 0.55,0.027 z" />
      <path
         id="path4232"
         style=""
         d="m 308.60471,1039.9034 c 0.12375,-0.027 0.5775,-0.041 0.77,-0.041 0.23375,0 0.48125,0 0.56375,0.027 -0.0413,-0.495 -0.0962,-1.8288 -0.0962,-3.3 0,-0.2475 0.055,-0.4125 0.15125,-0.6188 0.33,-0.6875 1.65,-2.8187 1.98,-3.355 0.31625,-0.4812 0.83875,-1.2787 1.08625,-1.5537 -0.0825,0.027 -0.4125,0.041 -0.81125,0.041 -0.12375,0 -0.3025,0 -0.42625,-0.027 -0.0962,0.2338 -0.34375,0.7288 -0.495,0.99 -0.3025,0.5363 -1.43,2.5025 -1.91125,3.3 -0.22,-0.3437 -1.6775,-2.7775 -1.88375,-3.1075 -0.22,-0.385 -0.5225,-0.9625 -0.6325,-1.1962 -0.0963,0.027 -0.6325,0.041 -0.9075,0.041 -0.3025,0 -0.495,0 -0.66,-0.027 0.385,0.385 0.78375,1.0038 1.22375,1.6225 0.385,0.605 1.5675,2.4888 1.99375,3.245 0.0825,0.1238 0.165,0.3438 0.165,0.6325 0,1.8425 -0.055,2.915 -0.11,3.3275 z" />
    </g>
  </g>
  <g
     id="layer2">
    <text
       id="text4139"
       y="53.973679"
       x="14.289474"
       style="font-style:normal;font-variant:normal;font-weight:normal;font-stretch:normal;font-size:36.25px;line-height:100%;font-family:'Trajan Sans Pro';-inkscape-font-specification:'Trajan Sans Pro';letter-spacing:0px;word-spacing:0px;fill:#ffffff;fill-opacity:1;stroke:none;stroke-width:1px;stroke-linecap:butt;stroke-linejoin:miter;stroke-opacity:1;"
       xml:space="preserve"><tspan
         dx="0 -2.5 -3 0 0 -1.5 0 0 0 0 0 -1.5 -0.5"
         style="font-style:normal;font-variant:normal;font-weight:normal;font-stretch:normal;font-size:36.25px;line-height:100%;font-family:'Trajan Sans Pro';-inkscape-font-specification:'Trajan Sans Pro';letter-spacing:-2px;word-spacing:1px;fill:#ffffff;"
         y="53.973679"
         x="14.289474"
         id="tspan4141">MILLIGAN RONA</tspan><tspan
         dx="0 -2.5 -4.5 3 -2.5 0 0 0 0 0 -3.5 -2.5"
         style="font-style:normal;font-variant:normal;font-weight:normal;font-stretch:normal;font-size:36.25px;line-height:100%;font-family:'Trajan Sans Pro';-inkscape-font-specification:'Trajan Sans Pro';letter-spacing:-0.5px;word-spacing:4px;fill:#ffffff;"
         id="tspan4143"
         y="90.223679"
         x="14.289474">DURAN &amp; KING</tspan></text>
  </g>
</svg>
